{"glyphs":{":":{"x_min":0,"x_max":185,"ha":185,"o":"m 48 86 l 131 86 l 131 0 l 48 0 z m 48 461 l 131 461 l 131 375 l 48 375 z"},"$":{"x_min":0,"x_max":584,"ha":584,"o":"m 546 446 q 548 431 552 415 q 556 399 558 383 q 559 367 556 352 q 553 336 541 323 q 474 247 408 171 q 341 95 270 24 q 252 22 235 23 q 218 24 202 27 q 186 30 170 32 q 155 35 142 36 q 129 37 113 39 q 97 41 82 43 q 67 45 56 47 q 44 49 41 51 q 28 59 26 72 q 23 86 21 98 q 19 125 16 150 q 14 176 10 202 q 8 226 4 249 q -1 272 0 297 q 8 312 20 326 q 31 339 41 354 q 76 392 109 430 q 142 469 177 508 q 193 528 216 554 q 239 581 259 606 q 264 613 272 616 q 281 619 290 620 q 299 621 307 621 q 315 621 318 622 q 362 627 406 627 q 451 627 495 632 q 502 631 507 627 q 512 623 513 618 q 516 601 518 584 q 520 568 524 551 q 530 523 536 494 q 542 465 546 446 z m 95 376 q 88 367 80 356 q 71 346 66 335 q 77 330 88 336 q 99 342 106 347 q 141 376 170 410 q 200 445 229 477 q 233 483 236 490 q 238 497 243 503 q 245 513 245 525 q 245 537 240 544 q 206 501 166 462 q 127 422 95 376 z m 41 136 q 47 128 56 134 q 65 139 73 147 q 75 151 82 160 q 88 169 87 186 q 89 200 86 211 q 82 222 70 231 q 67 231 62 234 q 57 236 52 237 q 46 238 42 236 q 37 235 35 229 q 43 185 41 136 z m 245 54 q 245 69 244 86 q 243 103 238 118 q 230 121 222 126 q 213 130 205 132 q 190 134 176 135 q 161 136 148 141 q 130 127 114 112 q 97 96 81 79 l 81 73 q 96 66 110 64 q 125 62 140 62 q 155 61 170 61 q 186 61 204 59 q 221 57 230 53 q 238 49 245 54 z m 417 344 q 426 353 430 365 q 433 377 434 389 q 434 401 432 412 q 431 423 431 429 q 430 437 426 455 q 421 473 417 487 q 411 489 398 490 q 384 490 372 489 q 352 491 334 487 q 317 483 300 478 q 265 450 238 418 q 211 385 183 352 q 176 342 167 333 q 158 324 150 314 q 141 305 134 295 q 128 285 126 273 q 128 255 128 244 q 129 234 133 222 q 135 211 136 203 q 136 195 138 187 q 141 174 156 168 q 171 163 179 161 q 188 159 197 156 q 206 153 216 151 q 226 149 235 150 q 244 150 253 155 q 271 180 292 203 q 313 226 334 250 q 356 273 378 296 q 399 319 417 344 z m 409 519 q 425 540 443 560 q 461 579 472 601 q 431 605 399 600 q 367 594 326 593 l 309 593 q 307 593 304 594 q 300 594 298 592 q 298 578 300 570 q 302 561 304 549 q 306 539 307 528 q 308 516 313 508 q 327 506 340 507 q 353 508 369 509 q 380 511 390 510 q 400 509 409 519 z m 345 456 q 366 457 382 444 q 399 430 409 413 q 412 403 406 390 q 401 376 392 362 q 383 347 372 334 q 361 322 354 314 q 328 286 306 257 q 283 228 254 202 q 243 193 228 186 q 214 178 197 186 q 174 198 168 216 q 161 233 156 252 q 152 266 156 275 q 159 284 164 290 q 196 326 228 359 q 260 392 293 426 q 305 434 318 442 q 331 451 345 456 z m 386 385 q 392 393 390 402 q 389 412 384 420 q 376 427 368 432 q 360 438 348 436 q 337 431 328 426 q 320 420 312 415 q 304 409 292 398 q 281 386 270 374 q 258 362 248 352 q 238 342 234 339 q 232 336 224 328 q 216 320 206 310 q 197 300 188 289 q 180 278 177 270 q 175 265 175 256 q 175 246 177 236 q 179 226 184 217 q 189 208 197 202 q 211 197 222 200 q 233 204 242 212 q 250 219 258 228 q 265 237 271 245 q 284 260 297 274 q 310 288 328 307 q 334 315 343 326 q 352 337 360 348 q 369 359 376 369 q 383 379 386 385 z"},"?":{"x_min":0,"x_max":529,"ha":529,"o":"m 59 660 q 73 676 102 687 q 127 697 169 705 q 211 713 277 713 q 344 712 386 690 q 429 667 454 636 q 479 606 490 574 q 500 542 502 521 q 505 491 496 459 q 488 427 470 396 q 451 364 422 336 q 393 308 355 286 q 278 241 232 200 q 187 160 186 134 q 185 121 189 111 q 193 101 198 93 q 203 84 211 76 q 193 64 179 55 q 167 47 157 40 q 147 34 147 35 q 120 64 112 94 q 104 123 116 155 q 128 187 161 224 q 194 261 250 305 q 299 344 326 370 q 354 395 368 416 q 381 437 386 458 q 390 479 392 509 q 393 530 384 556 q 375 583 357 606 q 339 630 313 646 q 287 662 255 661 q 223 659 202 654 q 181 648 169 641 q 155 633 148 624 l -4 478 z m 148 -23 l 250 -23 l 250 -166 l 148 -166 z m 443 593 l 417 519 l 445 439 l 477 519 z"},"<":{"x_min":0,"x_max":584,"ha":584,"o":"m 527 489 l 118 325 l 527 159 l 527 104 l 61 298 l 61 351 l 527 542 z"},"'":{"x_min":0,"x_max":93,"ha":93,"o":"m 71 702 l 50 529 l 16 529 l 0 702 z"},"=":{"x_min":0,"x_max":529,"ha":529,"o":"m 58 292 l 489 292 l 489 245 l 58 245 z m 58 459 l 489 459 l 489 412 l 58 412 z"},"a":{"x_min":0,"x_max":522,"ha":522,"o":"m 513 0 l 285 0 l 330 52 l 298 208 l 173 208 l 132 48 l 185 0 l -1 0 l 69 52 l 208 556 l 145 606 l 301 606 l 455 44 l 513 0 z m 183 245 l 288 245 l 235 457 l 183 245 z"},"L":{"x_min":0,"x_max":615,"ha":615,"o":"m 1 -165 l 107 -112 l 107 629 l 1 700 l 311 700 l 221 629 l 221 -109 l 448 -109 l 614 41 l 549 -165 z m 137 138 l 166 -99 l 196 138 l 167 185 z m 135 382 l 165 334 l 196 382 l 166 613 z m 165 300 l 136 262 l 165 223 l 196 262 z"},"3":{"x_min":0,"x_max":545,"ha":545,"o":"m 56 609 q 74 635 103 656 q 128 674 166 690 q 204 705 261 707 q 317 709 360 694 q 402 680 430 654 q 458 628 472 594 q 486 559 485 520 q 483 454 460 413 q 437 372 410 349 q 378 322 338 308 q 387 293 426 263 q 442 250 458 233 q 474 216 486 194 q 498 172 505 144 q 512 116 512 82 q 511 3 486 -46 q 461 -96 424 -124 q 387 -153 344 -163 q 300 -173 261 -172 q 210 -171 174 -164 q 137 -158 111 -150 q 81 -141 60 -129 l 1 43 l 157 -92 q 171 -96 188 -100 q 202 -103 220 -106 q 238 -108 258 -107 q 278 -107 302 -96 q 327 -84 348 -62 q 370 -40 384 -6 q 399 27 399 72 q 399 115 389 147 q 379 179 362 202 q 346 224 325 238 q 304 253 282 261 q 230 280 165 275 q 168 288 172 299 q 174 304 175 308 q 176 312 177 316 q 178 320 179 324 q 197 324 228 328 q 258 333 288 350 q 319 368 342 402 q 366 435 371 493 q 375 523 368 550 q 361 576 346 596 q 331 617 310 630 q 288 643 263 646 q 231 648 212 644 q 194 640 184 634 q 173 627 169 617 l 7 439 z m 425 588 l 399 514 l 427 434 l 459 514 z m 452 152 l 426 78 l 454 -2 l 486 78 z"},";":{"x_min":0,"x_max":174,"ha":174,"o":"m 42 86 l 125 86 l 125 0 q 124 -32 114 -53 q 103 -74 90 -87 q 75 -102 55 -111 l 42 -95 q 54 -86 63 -72 q 71 -61 77 -43 q 83 -25 81 0 l 42 0 z m 42 460 l 125 460 l 125 374 l 42 374 z"},"J":{"x_min":0,"x_max":516,"ha":516,"o":"m 2 -79 q -7 -41 8 -15 q 24 11 62 12 q 75 12 86 6 q 98 1 106 -9 q 115 -19 118 -32 q 121 -45 116 -60 q 108 -86 116 -102 q 125 -119 159 -120 q 174 -120 186 -113 q 199 -106 208 -94 q 218 -81 225 -65 q 232 -49 237 -32 q 248 8 254 58 l 254 637 l 141 700 l 503 700 l 380 635 l 380 78 q 381 7 359 -48 q 350 -72 334 -94 q 319 -117 295 -134 q 271 -152 238 -163 q 205 -174 161 -174 q 122 -174 94 -164 q 67 -154 48 -140 q 29 -125 18 -108 q 7 -92 2 -79 z m 243 -109 q 270 -92 292 -63 q 314 -34 328 0 q 339 26 344 56 q 349 86 349 126 l 321 174 l 292 126 q 292 100 294 74 q 297 47 293 20 q 288 -16 277 -48 q 266 -81 243 -109 z m 320 612 l 290 381 l 319 333 l 349 381 z m 292 261 l 319 222 l 348 261 l 319 299 z"},"V":{"x_min":0,"x_max":751,"ha":751,"o":"m -3 702 l 325 701 l 226 641 l 416 47 l 556 640 l 451 702 l 742 702 l 629 639 l 431 -165 l 365 -165 l 102 638 z m 291 162 l 392 -55 l 345 180 l 304 216 z m 212 392 l 256 356 l 267 411 l 165 620 z m 266 324 l 251 279 l 291 251 l 304 296 z"},"\"":{"x_min":0,"x_max":208,"ha":208,"o":"m 71 702 l 50 529 l 16 529 l 0 702 z m 186 702 l 165 529 l 131 529 l 115 702 z"},"7":{"x_min":0,"x_max":676,"ha":676,"o":"m 24 -164 l 490 644 l 170 644 l 0 490 l 85 700 l 649 700 l 157 -166 z m 379 398 l 376 343 l 428 366 l 527 606 z m 312 282 l 314 232 l 359 249 l 359 300 z m 134 -83 l 290 132 l 287 186 l 243 164 z"},"S":{"x_min":0,"x_max":547,"ha":547,"o":"m 364 638 q 325 647 289 651 q 258 654 226 650 q 195 646 176 629 q 138 593 143 556 q 148 520 179 481 q 210 442 258 400 q 306 358 355 312 q 410 261 442 218 q 475 175 492 138 q 510 100 514 68 q 519 35 519 6 q 518 -55 490 -92 q 461 -129 421 -149 q 381 -169 338 -176 q 295 -182 265 -182 q 199 -183 156 -174 q 113 -166 87 -156 q 57 -145 41 -130 l -29 68 l 140 -93 q 158 -106 181 -114 q 201 -121 227 -124 q 253 -128 283 -122 q 311 -116 334 -107 q 357 -98 374 -82 q 391 -65 400 -39 q 409 -13 409 27 q 409 54 391 86 q 373 117 348 148 q 322 180 293 208 q 264 237 242 256 q 207 285 168 316 q 128 346 94 380 q 59 415 36 456 q 13 496 12 547 q 11 583 30 614 q 48 646 81 670 q 114 693 160 706 q 205 720 259 720 q 313 720 352 713 q 392 706 418 697 q 448 686 468 673 l 520 495 z m 73 595 q 74 554 83 516 q 92 479 103 455 q 107 445 115 431 q 123 417 133 403 q 143 389 154 376 q 165 363 176 355 l 230 354 l 204 404 q 177 424 158 442 q 140 459 128 472 q 120 482 111 497 q 102 512 94 529 q 87 546 82 564 q 76 581 73 595 z m 268 319 l 276 272 l 324 265 l 315 312 z m 466 -53 q 475 -13 471 26 q 467 65 459 100 q 451 134 436 168 q 420 201 403 221 l 351 236 l 364 180 q 382 162 398 144 q 413 125 430 93 q 438 76 445 56 q 452 37 456 18 q 461 -2 464 -20 q 466 -39 466 -53 z"},"}":{"x_min":0,"x_max":317,"ha":317,"o":"m 10 750 q 10 747 20 748 q 31 750 49 749 q 67 748 92 742 q 116 737 144 720 q 167 707 184 680 q 200 652 195 606 q 188 550 181 500 q 174 449 180 408 q 186 367 211 336 q 236 306 294 289 l 294 284 q 294 282 294 279 q 295 276 295 273 l 295 256 q 257 250 229 232 q 217 224 206 212 q 195 200 186 184 q 178 167 174 144 q 170 122 173 94 q 176 55 183 16 q 190 -23 194 -59 q 197 -95 192 -126 q 188 -156 168 -178 q 148 -200 108 -212 q 69 -225 2 -223 q 0 -224 0 -218 q 0 -212 1 -204 q 2 -195 4 -183 q 47 -183 70 -175 q 94 -167 103 -151 q 112 -135 111 -112 q 110 -88 105 -57 q 100 -26 94 13 q 88 52 88 99 q 88 156 106 192 q 123 227 144 246 q 166 266 184 272 q 202 279 202 278 q 203 277 184 284 q 166 290 144 310 q 122 329 104 363 q 86 397 88 450 q 89 485 96 518 q 102 551 107 580 q 112 610 112 634 q 113 658 102 676 q 92 693 68 702 q 45 712 2 712 q 1 710 2 716 q 4 722 6 730 z"},"Z":{"x_min":0,"x_max":719,"ha":719,"o":"m 197 -105 l 566 -105 l 721 31 l 644 -165 l 26 -164 l 540 644 l 187 644 l 0 490 l 94 700 l 715 700 l 197 -105 z m 581 606 l 418 398 l 414 343 l 471 366 l 581 606 z m 395 300 l 344 282 l 346 232 l 395 249 l 395 300 z m 268 164 l 148 -83 l 319 132 l 316 186 l 268 164 z"},"x":{"x_min":0,"x_max":486,"ha":486,"o":"m -10 605 l 179 605 l 152 574 l 235 407 l 315 572 l 287 605 l 427 605 l 380 572 l 267 344 l 421 41 l 479 0 l 248 0 l 301 36 l 206 232 l 122 41 l 165 0 l 0 0 l 57 41 l 174 299 l 41 567 l -10 605 z"},")":{"x_min":0,"x_max":303,"ha":303,"o":"m 15 758 q 15 758 28 750 q 40 741 60 726 q 80 710 104 686 q 129 663 154 632 q 179 603 202 566 q 225 528 243 482 q 261 437 272 383 q 282 329 282 266 q 282 160 256 84 q 231 7 188 -56 q 160 -97 130 -130 q 100 -163 74 -186 q 44 -213 16 -235 l 1 -210 q 24 -191 48 -164 q 68 -141 90 -106 q 113 -70 132 -19 q 156 40 172 118 q 188 195 186 290 q 185 381 168 452 q 152 523 127 574 q 109 612 87 642 q 65 671 45 692 q 22 717 -1 736 z"},"&":{"x_min":0,"x_max":769,"ha":769,"o":"m 471 308 l 752 308 l 637 237 q 628 192 613 145 q 600 105 580 58 q 560 10 531 -33 l 569 -99 l 709 -165 l 476 -165 l 451 -117 q 412 -143 362 -159 q 312 -175 249 -177 q 181 -179 133 -155 q 85 -131 55 -94 q 25 -58 12 -14 q -1 29 2 65 q 4 90 12 122 q 19 154 40 188 q 62 222 102 256 q 143 291 211 322 l 201 342 q 182 376 169 412 q 157 442 148 478 q 140 515 142 549 q 144 582 160 612 q 176 642 202 664 q 229 686 266 698 q 303 711 347 711 q 401 711 434 694 q 468 677 486 651 q 505 625 512 592 q 519 560 519 529 q 519 493 503 460 q 487 427 462 398 q 438 370 408 346 q 377 323 349 306 l 498 26 q 509 44 522 68 q 534 91 544 118 q 555 145 561 176 q 567 206 566 237 z m 286 -104 q 307 -104 324 -100 q 342 -95 358 -88 q 373 -82 388 -74 q 403 -65 419 -56 l 243 265 q 220 254 197 238 q 174 222 156 201 q 137 180 124 152 q 112 125 109 91 q 106 59 115 25 q 124 -9 146 -38 q 167 -67 202 -86 q 236 -104 286 -104 z m 261 540 q 261 520 266 498 q 272 476 280 454 q 287 433 296 413 q 304 393 312 377 l 321 362 q 382 402 416 440 q 450 479 450 534 q 450 568 442 590 q 433 611 420 623 q 406 635 388 640 q 371 644 352 644 q 323 643 306 632 q 288 622 278 607 q 268 592 264 574 q 261 556 261 540 z m 501 -91 l 415 123 l 369 151 l 366 96 z m 356 231 l 314 254 l 305 206 l 348 185 z m 207 588 q 198 575 194 558 q 191 540 191 520 q 191 501 193 481 q 195 461 198 443 q 203 415 216 386 q 230 356 248 321 l 294 290 l 299 346 q 288 357 277 372 q 267 385 256 403 q 244 421 234 444 q 232 448 227 461 q 222 474 216 494 q 211 513 208 537 q 205 561 207 588 z m 53 140 l 27 66 l 55 -14 l 87 66 z"},"_":{"x_min":0,"x_max":534,"ha":534,"o":"m 1 -152 l 500 -152 l 500 -199 l 1 -199 z"},"v":{"x_min":0,"x_max":457,"ha":457,"o":"m 0 605 l 202 605 l 157 564 l 247 236 l 324 565 l 268 605 l 445 605 l 387 564 l 249 0 l 203 0 l 49 564 z"},"O":{"x_min":0,"x_max":759,"ha":759,"o":"m 640 540 q 672 486 690 416 q 708 345 708 267 q 708 223 701 178 q 694 132 681 90 q 668 47 650 9 q 631 -29 609 -58 q 561 -121 494 -146 q 428 -172 354 -172 q 279 -172 208 -140 q 137 -107 86 -46 q 38 13 19 94 q 0 176 0 267 q 0 348 16 421 q 32 494 72 551 q 96 588 127 618 q 158 647 194 668 q 231 689 272 700 q 312 711 354 711 q 441 711 516 666 q 590 620 640 540 z m 353 -118 q 410 -117 452 -86 q 494 -56 522 -4 q 550 48 564 118 q 578 187 578 267 q 578 348 563 419 q 548 490 518 544 q 489 597 446 628 q 404 658 350 657 q 299 656 258 625 q 216 594 187 542 q 158 489 142 418 q 126 348 126 267 q 126 187 142 117 q 157 47 186 -6 q 215 -58 258 -88 q 300 -119 353 -118 z m 203 619 q 168 598 141 571 q 114 544 98 522 q 92 513 84 500 q 76 486 68 470 q 61 454 55 438 q 49 423 48 410 l 74 362 l 105 410 q 109 443 114 468 q 120 492 126 509 q 130 521 138 536 q 147 551 158 566 q 169 581 180 595 q 192 609 203 619 z m 33 279 l 60 240 l 89 279 l 60 317 z m 197 -93 q 176 -73 152 -37 q 129 -1 117 34 q 105 69 102 92 q 100 116 100 142 l 69 190 l 43 142 q 46 116 60 82 q 73 47 92 18 q 112 -13 137 -42 q 162 -72 197 -93 z m 501 619 q 511 609 523 595 q 535 581 546 566 q 557 551 566 536 q 574 521 578 509 q 584 492 590 468 q 595 443 599 410 l 630 362 l 656 410 q 654 423 648 438 q 643 454 636 470 q 628 486 620 500 q 612 513 606 522 q 590 544 563 571 q 536 598 501 619 z m 644 317 l 615 279 l 644 240 l 671 279 z m 507 -93 q 542 -72 567 -42 q 592 -13 612 18 q 631 47 644 82 q 658 116 661 142 l 635 190 l 604 142 q 604 116 602 92 q 599 69 587 34 q 575 -1 552 -37 q 528 -73 507 -93 z"},"(":{"x_min":0,"x_max":296,"ha":296,"o":"m 283 736 q 260 717 237 692 q 217 671 195 642 q 173 612 155 574 q 130 523 114 452 q 97 381 96 290 q 94 195 110 118 q 126 40 150 -19 q 168 -70 191 -106 q 214 -141 234 -164 q 258 -191 281 -210 l 266 -235 q 238 -213 208 -186 q 182 -163 152 -130 q 122 -97 94 -56 q 51 7 26 84 q 0 160 0 266 q 0 329 10 383 q 21 437 39 482 q 57 528 80 566 q 103 603 128 632 q 153 663 178 686 q 202 710 222 726 q 242 741 254 750 q 267 758 267 758 z"},"C":{"x_min":0,"x_max":635,"ha":635,"o":"m 608 47 l 548 -116 q 526 -131 494 -143 q 467 -154 428 -162 q 388 -171 335 -171 q 300 -171 264 -163 q 229 -155 196 -140 q 162 -124 132 -100 q 102 -76 79 -45 q 35 12 18 94 q 0 177 0 267 q 0 348 15 420 q 30 491 65 550 q 87 586 118 615 q 149 644 184 664 q 219 684 258 695 q 296 706 335 708 q 401 710 442 703 q 484 696 507 686 q 534 675 548 660 l 611 552 l 443 641 q 431 647 406 649 q 380 651 360 650 q 323 649 282 630 q 242 610 208 566 q 173 521 150 448 q 128 375 128 267 q 127 168 148 94 q 170 20 204 -28 q 238 -77 281 -100 q 324 -123 366 -120 q 377 -119 390 -116 q 402 -114 414 -110 q 426 -106 436 -102 q 445 -97 451 -92 z m 204 628 q 169 607 142 580 q 115 553 99 531 q 93 522 85 508 q 77 495 70 479 q 62 463 56 448 q 50 432 49 419 l 75 371 l 106 419 q 110 452 116 476 q 121 501 127 518 q 131 530 140 545 q 148 560 159 575 q 170 590 182 604 q 193 618 204 628 z m 40 286 l 67 247 l 96 286 l 67 324 z m 198 -87 q 177 -67 154 -31 q 130 5 118 40 q 106 75 104 98 q 101 122 101 148 l 70 196 l 44 148 q 47 122 60 88 q 74 53 93 24 q 113 -7 138 -36 q 163 -66 198 -87 z"},"W":{"x_min":0,"x_max":1140,"ha":1140,"o":"m -26 700 l 319 700 l 201 642 l 384 54 l 537 642 l 436 700 l 747 700 l 641 642 l 822 75 l 966 643 l 859 700 l 1160 700 l 1043 642 l 825 -165 l 757 -165 l 565 487 l 392 -165 l 320 -165 l 77 642 z m 254 162 l 347 -59 l 308 178 l 269 215 z m 183 394 l 226 357 l 239 411 l 144 624 z m 235 324 l 218 280 l 257 251 l 271 295 z m 699 162 l 792 -59 l 753 178 l 714 215 z m 628 394 l 671 357 l 684 411 l 589 624 z m 680 324 l 663 280 l 702 251 l 716 295 z"},"A":{"x_min":0,"x_max":798,"ha":798,"o":"m 456 -165 l 550 -91 l 475 238 l 277 238 l 190 -96 l 291 -165 l -1 -165 l 119 -94 l 319 629 l 170 700 l 475 700 l 683 -91 l 798 -165 z m 462 294 l 383 617 l 295 294 z m 531 140 l 614 -84 l 586 154 l 548 193 z m 471 376 l 512 337 l 528 390 l 443 607 z m 520 304 l 501 260 l 538 229 l 555 273 z"},"f":{"x_min":0,"x_max":375,"ha":375,"o":"m 1 605 l 352 605 l 352 391 l 279 572 l 160 572 l 160 330 l 231 330 l 279 402 l 279 221 l 233 288 l 160 288 l 160 41 l 208 0 l 1 0 l 45 38 l 45 566 z"},"Q":{"x_min":0,"x_max":775,"ha":775,"o":"m -12 -291 q 7 -253 32 -225 q 57 -197 86 -178 q 114 -159 144 -149 q 173 -139 201 -136 q 169 -119 140 -97 q 110 -75 86 -46 q 38 13 19 94 q 0 176 0 267 q 0 348 16 421 q 32 494 72 551 q 96 588 127 618 q 158 647 194 668 q 231 689 272 700 q 312 711 354 711 q 441 711 516 666 q 590 620 640 540 q 672 486 690 416 q 708 345 708 267 q 708 223 701 178 q 694 132 681 90 q 668 47 650 9 q 631 -29 609 -58 q 579 -97 546 -120 q 514 -142 470 -154 q 494 -159 510 -168 q 527 -177 547 -188 q 563 -196 579 -200 q 595 -204 609 -205 q 625 -207 639 -205 l 769 -100 q 751 -137 735 -172 q 721 -202 706 -235 q 692 -268 682 -292 q 632 -298 596 -289 q 560 -280 527 -264 q 494 -249 458 -230 q 422 -212 372 -199 q 325 -187 272 -188 q 220 -190 169 -204 q 118 -217 73 -241 q 28 -265 -5 -297 z m 353 -118 q 410 -117 452 -86 q 494 -56 522 -4 q 550 48 564 118 q 578 187 578 267 q 578 348 563 419 q 548 490 518 544 q 489 597 446 628 q 404 658 350 657 q 299 656 258 625 q 216 594 187 542 q 158 489 142 418 q 126 348 126 267 q 126 187 142 117 q 157 47 186 -6 q 215 -58 258 -88 q 300 -119 353 -118 z m 507 -93 q 542 -72 567 -42 q 592 -13 612 18 q 631 47 644 82 q 658 116 661 142 l 635 190 l 604 142 q 604 116 602 92 q 599 69 587 34 q 575 -1 552 -37 q 528 -73 507 -93 z m 197 -93 q 176 -73 152 -37 q 129 -1 117 34 q 105 69 102 92 q 100 116 100 142 l 69 190 l 43 142 q 46 116 60 82 q 73 47 92 18 q 112 -13 137 -42 q 162 -72 197 -93 z m 203 619 q 168 598 141 571 q 114 544 98 522 q 92 513 84 500 q 76 486 68 470 q 61 454 55 438 q 49 423 48 410 l 74 362 l 105 410 q 109 443 114 468 q 120 492 126 509 q 130 521 138 536 q 147 551 158 566 q 169 581 180 595 q 192 609 203 619 z m 501 619 q 511 609 523 595 q 535 581 546 566 q 557 551 566 536 q 574 521 578 509 q 584 492 590 468 q 595 443 599 410 l 630 362 l 656 410 q 654 423 648 438 q 643 454 636 470 q 628 486 620 500 q 612 513 606 522 q 590 544 563 571 q 536 598 501 619 z m 33 279 l 60 240 l 89 279 l 60 317 z m 644 317 l 615 279 l 644 240 l 671 279 z"},"w":{"x_min":0,"x_max":733,"ha":733,"o":"m 0 605 l 202 605 l 157 564 l 247 236 l 324 564 l 268 605 l 477 605 l 432 564 l 522 236 l 599 565 l 543 605 l 720 605 l 662 564 l 524 0 l 478 0 l 357 442 l 249 0 l 203 0 l 49 564 z"},"-":{"x_min":0,"x_max":346,"ha":346,"o":"m 58 292 l 307 291 l 307 210 l 58 210 z"},"E":{"x_min":0,"x_max":647,"ha":647,"o":"m 0 700 l 571 700 l 626 495 l 484 644 l 221 644 l 221 294 l 398 294 l 467 428 l 467 107 l 400 238 l 221 238 l 221 -100 l 491 -100 l 627 36 l 571 -165 l 2 -165 l 102 -97 l 102 629 z m 133 149 l 159 -88 l 190 149 l 162 196 z m 131 393 l 161 345 l 190 393 l 160 624 z m 161 311 l 132 273 l 161 234 l 188 273 z"},"s":{"x_min":0,"x_max":360,"ha":360,"o":"m 231 552 q 211 561 192 565 q 175 567 156 564 q 138 560 122 542 q 99 516 102 492 q 105 469 124 444 q 143 419 174 392 q 204 366 237 335 q 274 300 296 273 q 317 246 326 222 q 336 199 338 176 q 339 154 338 127 q 336 85 318 60 q 300 35 275 22 q 250 8 224 4 q 197 -1 177 -1 q 132 -2 102 4 q 72 9 55 16 q 35 24 24 34 l 24 265 l 102 62 q 113 52 127 47 q 139 42 156 40 q 172 37 192 42 q 211 46 222 56 q 233 67 238 82 q 244 96 244 113 q 243 130 239 148 q 231 183 204 209 q 178 235 148 261 q 124 281 104 298 q 85 316 69 333 q 53 350 42 367 q 31 384 25 404 q 11 450 18 488 q 26 527 48 554 q 70 581 103 596 q 136 611 173 611 q 210 611 236 606 q 263 602 280 596 q 300 589 314 580 l 314 374 z"},">":{"x_min":0,"x_max":586,"ha":586,"o":"m 59 542 l 525 351 l 525 298 l 59 104 l 59 159 l 468 325 l 59 489 z"},"l":{"x_min":0,"x_max":322,"ha":322,"o":"m 308 0 l 0 0 l 49 37 l 49 565 l 0 605 l 216 605 l 168 571 l 168 39 l 237 39 l 308 261 l 308 0 z"},"8":{"x_min":0,"x_max":602,"ha":602,"o":"m -3 77 q -3 115 8 150 q 18 186 40 216 q 61 245 94 267 q 128 289 175 300 q 111 322 73 371 q 35 420 35 491 q 35 539 50 579 q 66 619 98 648 q 129 678 177 695 q 225 712 290 713 q 342 714 388 700 q 434 686 468 658 q 502 631 522 589 q 542 547 542 491 q 542 421 506 372 q 470 322 411 299 q 450 288 482 266 q 514 245 536 216 q 558 186 570 150 q 582 115 582 77 q 582 24 562 -22 q 541 -67 503 -101 q 465 -135 411 -154 q 357 -174 290 -174 q 219 -174 164 -154 q 110 -134 72 -100 q 35 -67 16 -22 q -3 24 -3 77 z m 107 73 q 107 29 124 -9 q 140 -47 166 -74 q 192 -101 226 -116 q 259 -130 292 -128 q 325 -127 356 -110 q 388 -93 414 -65 q 439 -37 454 -2 q 470 34 470 73 q 470 112 454 148 q 439 183 414 209 q 388 235 356 250 q 325 266 292 266 q 257 266 224 251 q 191 236 165 210 q 139 184 123 149 q 107 114 107 73 z m 144 486 q 144 453 154 423 q 165 393 184 370 q 204 348 232 336 q 259 323 292 323 q 322 323 348 336 q 375 349 394 372 q 413 394 424 424 q 435 453 435 486 q 435 520 424 552 q 413 583 394 608 q 374 632 348 647 q 322 662 291 662 q 257 662 230 647 q 202 632 183 608 q 164 583 154 552 q 144 520 144 486 z m 521 152 l 495 78 l 523 -2 l 555 78 z m 51 152 l 20 78 l 53 -2 l 85 78 z m 485 567 l 459 493 l 487 413 l 519 493 z m 85 569 l 59 495 l 87 415 l 119 495 z"},"\\":{"x_min":0,"x_max":421,"ha":421,"o":"m 399 -165 l 352 -165 l 1 701 l 48 701 z"},"e":{"x_min":0,"x_max":375,"ha":375,"o":"m 1 605 l 352 605 l 352 391 l 279 572 l 160 572 l 160 330 l 231 330 l 279 402 l 279 221 l 233 288 l 160 288 l 160 46 l 283 46 l 352 272 l 352 0 l 1 0 l 45 38 l 45 566 l 1 605 z"},"b":{"x_min":0,"x_max":420,"ha":420,"o":"m 244 312 q 291 308 328 291 q 344 284 359 273 q 374 262 385 246 q 396 231 403 210 q 410 190 409 164 q 406 90 364 52 q 342 31 308 20 q 274 10 242 5 q 204 0 164 0 l 0 0 l 67 40 l 67 560 l 11 605 l 202 605 q 217 605 244 600 q 272 595 299 580 q 326 565 346 536 q 367 508 369 460 q 370 411 351 382 q 332 354 308 338 q 280 320 244 312 z m 169 334 q 204 333 230 345 q 241 350 252 358 q 263 367 271 380 q 279 394 284 412 q 288 431 287 456 q 285 500 266 522 q 248 545 226 555 q 200 566 169 567 z m 304 168 q 305 204 290 226 q 275 249 257 263 q 241 274 225 279 q 209 284 196 286 q 181 288 167 287 l 167 40 q 178 39 190 41 q 201 43 214 46 q 226 49 240 57 q 263 70 283 96 q 303 123 304 168 z"},"%":{"x_min":0,"x_max":1007,"ha":1007,"o":"m 971 35 l 999 18 l 999 10 l 927 -1 l 923 3 l 876 -4 l 780 24 l 758 33 l 733 39 l 637 68 l 631 68 l 617 49 l 615 35 l 606 27 l 585 29 l 580 14 l 566 -20 l 499 -91 l 518 -110 l 536 -118 l 562 -148 l 562 -158 l 566 -159 l 562 -162 l 566 -165 l 562 -168 l 568 -177 l 507 -179 l 455 -172 l 404 -152 l 349 -137 l 346 -140 l 337 -137 l 331 -137 l 331 -133 l 342 -127 l 341 -124 l 342 -110 l 375 -71 l 393 -52 l 400 -22 l 409 -11 l 411 8 l 415 10 l 394 22 l 374 27 l 356 18 l 341 3 l 310 -15 l 276 -27 l 266 -36 l 270 -95 l 265 -104 l 266 -108 l 258 -122 l 266 -127 l 270 -127 l 261 -133 l 258 -129 l 251 -133 l 239 -129 l 236 -133 l 189 -127 l 165 -140 l 113 -137 l 110 -135 l 108 -137 l 104 -135 l 98 -135 l 98 -129 l 101 -127 l 83 -96 l 78 -64 l 79 -60 l 75 -49 l 31 -16 l 16 104 l 10 167 l 9 167 l 9 178 l 10 178 l 10 175 l 14 172 l 10 170 l 20 134 l 22 145 l 9 276 l 10 280 l 9 281 l 9 288 l 10 288 l 14 291 l 16 288 l 20 288 l 22 291 l 20 293 l 22 295 l 20 299 l 16 299 l 20 301 l 83 314 l 90 324 l 98 345 l 123 368 l 123 379 l 157 406 l 148 441 l 88 444 l 79 450 l 50 450 l 46 452 l 45 450 l 41 452 l 39 452 l 39 456 l 56 460 l 64 468 l 52 475 l 85 493 l 101 510 l 138 540 l 140 544 l 140 547 l 138 551 l 148 572 l 167 603 l 177 610 l 182 625 l 208 652 l 239 683 l 270 694 l 302 695 l 305 698 l 371 695 l 390 688 l 434 658 l 469 619 l 488 578 l 511 551 l 513 490 l 503 434 l 485 402 l 478 394 l 478 387 l 492 368 l 492 343 l 488 339 l 494 310 l 499 295 l 503 280 l 511 245 l 538 211 l 572 178 l 572 167 l 580 160 l 598 156 l 598 153 l 573 160 l 572 161 l 557 138 l 551 131 l 532 119 l 528 119 l 524 117 l 528 109 l 562 83 l 576 83 l 580 84 l 593 79 l 585 83 l 582 83 l 576 77 l 585 68 l 601 72 l 608 79 l 612 106 l 620 126 l 620 138 l 606 150 l 605 153 l 626 142 l 627 142 l 649 181 l 652 186 l 667 182 l 671 175 l 659 138 l 659 134 l 677 126 l 749 109 l 872 79 l 922 65 l 941 52 l 946 52 l 971 35 z m 649 172 l 634 142 l 649 167 l 664 172 l 667 175 l 661 181 l 652 181 l 649 172 z m 184 619 l 182 610 l 236 628 l 239 625 l 251 625 l 265 628 l 266 625 l 272 625 l 310 619 l 316 614 l 337 608 l 362 595 l 405 551 l 423 515 l 423 526 l 425 529 l 430 522 l 430 512 l 428 478 l 442 510 l 449 537 l 453 562 l 438 581 l 428 606 l 430 608 l 459 565 l 462 537 l 467 547 l 469 547 l 473 545 l 469 544 l 469 534 l 449 490 l 455 485 l 455 475 l 453 471 l 444 433 l 448 431 l 484 413 l 488 424 l 494 441 l 499 450 l 506 501 l 503 503 l 506 507 l 507 522 l 506 526 l 507 529 l 507 534 l 506 537 l 507 540 l 480 578 l 462 616 l 419 660 l 415 660 l 404 672 l 375 688 l 346 694 l 327 690 l 265 683 l 244 677 l 184 619 z m 425 364 l 430 358 l 428 329 l 448 354 l 474 402 l 467 412 l 442 419 l 419 383 l 393 364 l 393 348 l 381 320 l 360 299 l 356 301 l 360 320 l 356 325 l 342 299 l 321 266 l 312 266 l 291 281 l 288 280 l 283 138 l 286 137 l 288 137 l 352 163 l 360 161 l 381 172 l 381 178 l 379 175 l 374 175 l 371 178 l 371 181 l 398 211 l 411 237 l 409 241 l 411 256 l 409 274 l 411 293 l 419 357 l 425 364 z m 409 186 l 405 197 l 400 197 l 394 188 l 409 186 z m 365 156 l 352 148 l 365 153 l 365 156 z m 286 117 l 283 119 l 283 123 l 280 123 l 280 112 l 283 112 l 310 119 l 337 137 l 341 145 l 337 145 l 331 134 l 310 123 l 286 117 z m 297 128 l 298 128 l 327 142 l 321 142 l 297 128 z m 319 116 l 280 102 l 283 83 l 305 93 l 352 137 l 319 116 z m 184 402 l 178 362 l 182 348 l 197 332 l 208 364 l 196 416 l 184 438 l 185 422 l 184 402 z m 177 401 l 178 419 l 167 438 l 157 441 l 159 413 l 173 398 l 177 401 z m 217 362 l 208 329 l 226 324 l 255 325 l 236 348 l 217 362 z m 221 369 l 255 348 l 286 335 l 352 358 l 360 368 l 365 362 l 362 358 l 365 329 l 371 318 l 381 337 l 386 412 l 400 441 l 398 460 l 390 482 l 375 496 l 375 488 l 394 452 l 385 419 l 381 422 l 385 456 l 379 463 l 360 466 l 354 463 l 371 450 l 371 444 l 367 441 l 365 444 l 360 452 l 346 456 l 349 452 l 349 441 l 341 433 l 331 433 l 324 441 l 312 450 l 310 446 l 298 446 l 293 452 l 286 452 l 277 450 l 276 452 l 276 456 l 266 444 l 265 444 l 265 438 l 261 434 l 258 438 l 251 431 l 244 431 l 236 433 l 232 444 l 221 444 l 214 441 l 217 431 l 214 427 l 211 431 l 207 441 l 208 444 l 207 446 l 192 441 l 197 431 l 221 369 z m 244 446 l 251 444 l 251 446 l 244 446 z m 371 478 l 367 482 l 367 496 l 354 482 l 362 482 l 371 478 z m 356 475 l 349 475 l 327 463 l 356 475 z m 416 406 l 400 389 l 394 389 l 394 375 l 398 379 l 400 379 l 423 401 l 434 424 l 438 450 l 430 450 l 425 446 l 423 427 l 416 406 z m 400 401 l 405 406 l 409 406 l 415 427 l 400 401 z m 436 457 l 438 456 l 438 457 l 444 475 l 442 475 l 434 468 l 409 444 l 394 413 l 398 413 l 398 416 l 423 452 l 436 457 z m 265 332 l 265 329 l 272 320 l 286 313 l 288 299 l 308 280 l 319 276 l 346 324 l 356 345 l 352 354 l 335 343 l 293 325 l 286 324 l 265 332 z m 145 556 l 144 547 l 145 545 l 163 551 l 165 547 l 184 556 l 222 559 l 266 554 l 316 544 l 354 526 l 400 478 l 405 450 l 415 457 l 416 496 l 409 526 l 398 545 l 365 581 l 349 591 l 327 600 l 308 606 l 302 610 l 233 616 l 192 606 l 170 595 l 145 556 z m 154 450 l 201 463 l 203 460 l 201 457 l 201 456 l 203 456 l 226 460 l 280 482 l 283 478 l 283 477 l 277 471 l 247 457 l 258 460 l 291 471 l 335 501 l 337 500 l 337 493 l 331 488 l 312 471 l 327 475 l 360 496 l 365 507 l 354 515 l 327 529 l 265 545 l 185 547 l 167 537 l 159 537 l 145 534 l 96 490 l 98 490 l 101 488 l 101 485 l 96 478 l 94 478 l 83 463 l 66 457 l 75 457 l 78 456 l 113 457 l 123 452 l 123 450 l 154 450 z m 154 394 l 133 373 l 138 362 l 165 329 l 182 325 l 182 332 l 173 345 l 167 368 l 170 387 l 163 394 l 154 394 z m 108 343 l 96 320 l 104 320 l 113 324 l 152 329 l 140 345 l 127 358 l 121 357 l 108 343 z m 31 87 l 34 84 l 41 3 l 46 -9 l 46 -5 l 52 -1 l 56 -1 l 60 -9 l 56 -15 l 60 -22 l 66 -22 l 78 -34 l 88 -26 l 90 -27 l 90 -30 l 85 -39 l 108 -52 l 119 -47 l 121 -49 l 121 -52 l 119 -60 l 140 -78 l 145 -78 l 145 -74 l 154 -66 l 159 -71 l 154 -84 l 170 -78 l 182 -70 l 177 -70 l 173 -66 l 173 -60 l 178 -55 l 184 -55 l 189 -60 l 185 -64 l 189 -64 l 211 -45 l 208 -45 l 207 -41 l 207 -36 l 211 -30 l 221 -39 l 228 -30 l 239 -16 l 236 -16 l 232 -11 l 236 -5 l 244 -9 l 244 -5 l 251 79 l 247 219 l 251 222 l 247 224 l 247 232 l 242 293 l 233 293 l 228 299 l 232 301 l 228 304 l 211 310 l 203 306 l 207 304 l 207 301 l 201 295 l 197 295 l 192 301 l 192 304 l 197 310 l 170 310 l 159 304 l 163 301 l 167 293 l 170 207 l 178 207 l 197 205 l 201 207 l 203 207 l 242 205 l 244 138 l 239 131 l 207 126 l 203 128 l 165 123 l 165 15 l 170 4 l 167 3 l 170 -16 l 167 -34 l 110 -39 l 108 -36 l 104 -26 l 98 3 l 101 4 l 98 8 l 98 15 l 96 91 l 90 117 l 35 112 l 31 117 l 34 178 l 31 186 l 39 193 l 75 197 l 90 204 l 90 288 l 101 293 l 96 301 l 64 295 l 66 285 l 64 281 l 57 281 l 56 285 l 56 295 l 31 291 l 31 288 l 34 280 l 31 276 l 22 276 l 20 280 l 20 285 l 14 285 l 25 175 l 22 172 l 27 104 l 34 91 l 31 87 z m 133 293 l 98 285 l 98 197 l 94 192 l 57 188 l 39 182 l 41 119 l 52 119 l 66 123 l 98 128 l 101 126 l 101 123 l 108 87 l 104 84 l 110 -16 l 115 -27 l 127 -27 l 159 -26 l 157 126 l 163 131 l 165 131 l 221 138 l 228 137 l 233 142 l 232 200 l 221 200 l 184 197 l 163 200 l 159 280 l 163 281 l 159 285 l 157 293 l 133 293 z m 108 304 l 113 295 l 148 301 l 148 306 l 133 306 l 108 304 z m 44 -15 l 44 -10 l 39 -10 l 39 -15 l 44 -15 z m 78 -45 l 108 -64 l 46 -20 l 78 -45 z m 184 -118 l 192 -115 l 214 -95 l 232 -59 l 228 -59 l 217 -70 l 173 -99 l 159 -103 l 85 -64 l 85 -85 l 104 -122 l 127 -135 l 163 -135 l 178 -127 l 178 -122 l 182 -118 l 184 -118 z m 265 -74 l 261 -66 l 265 -64 l 261 -60 l 261 -39 l 255 -39 l 247 -45 l 233 -71 l 236 -71 l 251 -52 l 253 -55 l 253 -59 l 244 -74 l 226 -95 l 207 -115 l 207 -122 l 232 -122 l 244 -114 l 258 -95 l 265 -74 z m 265 116 l 261 117 l 266 160 l 265 161 l 266 163 l 265 167 l 266 175 l 265 178 l 266 181 l 265 182 l 265 192 l 266 193 l 265 197 l 265 200 l 266 204 l 265 205 l 265 211 l 266 280 l 265 281 l 265 285 l 266 288 l 265 291 l 265 304 l 255 313 l 247 310 l 236 314 l 197 318 l 196 318 l 194 318 l 152 320 l 145 314 l 144 318 l 78 310 l 25 295 l 27 295 l 46 301 l 50 299 l 52 301 l 79 306 l 83 304 l 85 306 l 88 306 l 113 313 l 194 318 l 197 318 l 239 313 l 253 299 l 255 281 l 253 280 l 255 276 l 261 182 l 258 102 l 261 98 l 258 96 l 261 93 l 255 15 l 258 14 l 251 -16 l 221 -49 l 173 -85 l 154 -91 l 165 -91 l 185 -80 l 228 -47 l 251 -27 l 258 -15 l 265 102 l 261 104 l 265 106 l 265 109 l 261 112 l 265 116 z m 266 39 l 270 24 l 266 -15 l 272 18 l 270 22 l 270 24 l 270 27 l 272 47 l 270 49 l 272 52 l 272 62 l 270 65 l 272 68 l 270 72 l 272 73 l 272 83 l 276 112 l 272 116 l 277 138 l 276 142 l 277 150 l 276 153 l 277 156 l 283 295 l 277 310 l 270 310 l 272 304 l 270 301 l 272 299 l 272 281 l 266 39 z m 341 10 l 438 119 l 449 126 l 478 138 l 474 142 l 455 150 l 425 167 l 423 163 l 400 172 l 400 175 l 404 178 l 394 178 l 385 156 l 362 126 l 356 131 l 335 106 l 297 77 l 283 73 l 277 27 l 280 24 l 280 15 l 277 14 l 280 10 l 277 8 l 277 -5 l 272 -22 l 312 -5 l 341 10 z m 352 -129 l 352 -127 l 349 -127 l 349 -129 l 352 -129 z m 425 -154 l 430 -154 l 419 -149 l 409 -143 l 385 -140 l 400 -143 l 419 -149 l 425 -154 z m 554 -22 l 554 -22 l 561 -16 l 557 -15 l 553 -21 l 554 -22 l 553 -22 l 538 -30 l 511 -39 l 480 -36 l 455 -26 l 419 4 l 425 -11 l 423 -15 l 419 -15 l 415 -9 l 411 -11 l 419 -26 l 415 -30 l 409 -26 l 404 -30 l 398 -60 l 386 -71 l 354 -104 l 352 -122 l 367 -129 l 409 -133 l 423 -143 l 469 -158 l 506 -162 l 513 -159 l 517 -162 l 532 -165 l 557 -162 l 557 -154 l 554 -152 l 541 -133 l 517 -114 l 513 -115 l 511 -114 l 511 -110 l 492 -103 l 463 -110 l 442 -103 l 442 -99 l 444 -96 l 462 -99 l 463 -96 l 467 -99 l 469 -96 l 474 -96 l 507 -71 l 480 -74 l 463 -70 l 462 -71 l 459 -70 l 442 -60 l 423 -45 l 419 -34 l 423 -30 l 430 -39 l 449 -55 l 467 -60 l 492 -64 l 518 -55 l 553 -22 l 554 -22 z m 573 14 l 576 27 l 573 40 l 549 77 l 536 84 l 536 91 l 528 98 l 524 98 l 507 112 l 499 119 l 503 123 l 518 123 l 529 128 l 532 126 l 536 128 l 543 131 l 561 148 l 566 172 l 524 216 l 506 245 l 488 304 l 485 364 l 474 380 l 455 354 l 436 313 l 438 313 l 442 314 l 459 345 l 462 343 l 462 339 l 449 313 l 423 280 l 423 270 l 419 232 l 411 204 l 415 193 l 436 170 l 455 161 l 488 138 l 497 126 l 494 123 l 469 128 l 453 123 l 453 119 l 448 116 l 444 116 l 411 83 l 375 33 l 434 14 l 444 3 l 442 -1 l 448 -9 l 473 -26 l 506 -27 l 538 -22 l 551 -11 l 551 -5 l 573 14 z m 582 49 l 587 62 l 585 65 l 580 65 l 566 68 l 572 58 l 582 47 l 582 49 z m 606 35 l 642 112 l 661 161 l 652 161 l 637 128 l 615 87 l 615 77 l 608 72 l 593 43 l 593 35 l 595 35 l 598 33 l 606 35 z m 656 123 l 645 102 l 649 102 l 656 123 z m 880 3 l 880 4 l 862 33 l 765 58 l 765 60 l 769 62 l 809 52 l 856 43 l 862 39 l 866 43 l 910 60 l 908 62 l 872 72 l 744 104 l 664 123 l 652 96 l 686 84 l 765 62 l 765 60 l 763 58 l 649 87 l 642 73 l 682 60 l 880 3 z m 888 4 l 989 15 l 977 24 l 920 58 l 872 39 l 877 18 l 888 4 z m 2 295 l 9 295 l 10 299 l 2 288 l 9 207 l 10 193 l 10 182 l 2 249 l 1 280 l 2 295 z m 277 419 l 280 416 l 276 389 l 277 387 l 280 387 l 280 383 l 272 387 l 266 398 l 277 419 z m 362 368 l 381 419 l 365 368 l 362 368 z m 291 380 l 298 380 l 277 373 l 291 380 z m 305 380 l 302 379 l 298 380 l 305 380 z m 288 362 l 291 358 l 286 362 l 288 362 z"},"m":{"x_min":0,"x_max":597,"ha":597,"o":"m 0 0 l 50 42 l 50 563 l 0 605 l 163 605 l 291 259 l 430 605 l 582 605 l 530 563 l 530 40 l 578 0 l 366 0 l 419 40 l 419 435 l 266 0 l 118 435 l 118 44 l 161 0 z"},"#":{"x_min":0,"x_max":598,"ha":598,"o":"m 77 516 l 211 516 l 277 700 l 334 700 l 269 516 l 397 516 l 464 700 l 521 700 l 455 516 l 578 516 l 558 462 l 437 462 l 392 336 l 518 336 l 502 284 l 372 284 l 306 99 l 250 99 l 316 284 l 188 284 l 122 99 l 64 99 l 129 284 l 0 284 l 16 336 l 146 336 l 193 462 l 56 462 z m 336 336 l 379 462 l 251 462 l 205 336 z"},",":{"x_min":0,"x_max":172,"ha":172,"o":"m 40 86 l 123 86 l 123 0 q 122 -32 112 -53 q 101 -74 88 -87 q 73 -102 53 -111 l 40 -95 q 52 -86 61 -72 q 69 -61 75 -43 q 81 -25 79 0 l 40 0 z"},"n":{"x_min":0,"x_max":409,"ha":409,"o":"m 0 0 l 50 42 l 50 563 l 0 605 l 118 605 l 301 262 l 301 571 l 259 605 l 398 605 l 366 575 l 366 0 l 301 0 l 118 369 l 118 44 l 161 0 l 0 0 z"},"h":{"x_min":0,"x_max":437,"ha":437,"o":"m 382 570 l 382 45 l 421 0 l 231 0 l 278 45 l 278 280 l 148 280 l 148 42 l 192 0 l 5 0 l 45 42 l 45 565 l 0 605 l 185 605 l 148 562 l 148 324 l 278 324 l 278 565 l 237 605 l 425 605 z"},"z":{"x_min":0,"x_max":357,"ha":357,"o":"m 261 42 l 336 274 l 336 0 l 0 0 l 209 566 l 83 566 l 0 390 l 0 605 l 336 605 l 125 42 z"},"B":{"x_min":0,"x_max":647,"ha":647,"o":"m 379 281 q 446 276 499 251 q 521 240 542 224 q 564 209 580 188 q 596 166 606 136 q 615 107 614 70 q 612 16 596 -23 q 580 -62 550 -90 q 518 -119 470 -134 q 422 -150 376 -157 q 322 -165 265 -165 l 0 -165 l 125 -99 l 125 629 l 7 700 l 319 700 q 333 700 356 697 q 379 694 405 686 q 431 678 457 664 q 483 650 505 627 q 527 604 541 571 q 555 538 557 492 q 558 457 551 430 q 544 403 532 382 q 520 360 504 344 q 488 328 471 317 q 431 291 379 281 z m 243 313 q 305 311 353 329 q 374 336 393 348 q 412 361 427 380 q 442 399 450 426 q 458 452 457 488 q 455 519 446 542 q 436 565 420 582 q 405 599 386 610 q 367 622 347 629 q 300 646 243 646 z m 505 79 q 501 130 473 164 q 445 199 403 226 q 382 238 354 242 q 327 247 301 248 q 271 249 240 246 l 240 -107 q 270 -108 300 -105 q 326 -103 354 -98 q 381 -94 402 -83 q 424 -72 444 -58 q 464 -44 478 -25 q 493 -6 500 18 q 508 43 505 76 z m 156 145 l 182 -92 l 213 145 l 185 192 z m 154 389 l 184 341 l 213 389 l 183 620 z m 184 307 l 155 269 l 184 230 l 211 269 z m 501 561 l 475 487 l 503 407 l 535 487 z m 553 158 l 527 72 l 555 -25 l 587 72 z"},"K":{"x_min":0,"x_max":715,"ha":715,"o":"m 186 -97 l 280 -165 l -30 -165 l 72 -93 l 72 643 l -21 702 l 272 702 l 186 643 l 186 338 l 432 643 l 364 702 l 610 702 l 507 643 l 263 336 l 600 -95 l 697 -165 l 370 -165 l 465 -102 l 186 250 z m 103 145 l 129 -92 l 160 145 l 132 192 z m 101 389 l 131 341 l 160 389 l 130 620 z m 131 307 l 102 269 l 131 230 l 158 269 z m 247 223 l 509 -63 l 292 258 l 228 294 z"},"R":{"x_min":0,"x_max":758,"ha":758,"o":"m 4 -165 l 117 -100 l 117 624 l -2 700 l 336 700 q 350 700 373 697 q 396 694 422 686 q 448 678 475 664 q 502 650 524 627 q 545 604 559 571 q 573 538 575 492 q 577 442 563 406 q 549 369 526 344 q 502 319 474 303 q 445 287 418 278 q 390 270 367 267 q 344 264 332 264 l 617 -97 l 744 -165 l 511 -165 l 232 209 l 232 -100 l 345 -165 z m 236 313 q 306 311 360 329 q 383 336 404 348 q 426 361 442 380 q 459 399 468 425 q 477 451 475 487 q 473 521 462 546 q 450 572 432 590 q 415 607 394 618 q 373 630 351 636 q 300 651 236 646 z m 148 150 l 177 -87 l 207 150 l 178 197 z m 146 394 l 176 346 l 207 394 l 177 625 z m 176 312 l 147 274 l 176 235 l 207 274 z m 287 184 l 536 -86 l 333 219 l 269 253 z m 519 557 l 493 483 l 521 403 l 553 483 z"},"T":{"x_min":0,"x_max":830,"ha":830,"o":"m 3 504 l 100 700 l 745 700 l 830 504 l 654 643 l 480 643 l 480 -98 l 580 -165 l 258 -165 l 363 -100 l 363 643 l 179 643 z m 394 159 l 420 -78 l 451 159 l 423 206 z m 392 403 l 422 355 l 451 403 l 421 634 z m 422 321 l 393 283 l 422 244 l 449 283 z"},"P":{"x_min":0,"x_max":563,"ha":563,"o":"m 225 306 q 291 306 343 325 q 365 333 386 346 q 407 359 422 378 q 438 398 447 424 q 456 451 455 487 q 453 518 442 542 q 432 565 416 582 q 399 599 378 610 q 358 622 337 629 q 287 646 225 646 z m -1 -165 l 108 -103 l 108 636 l -2 700 l 285 700 q 299 700 324 697 q 349 694 378 686 q 408 678 438 664 q 468 650 492 627 q 517 604 533 571 q 549 538 550 492 q 552 432 534 391 q 515 350 486 323 q 456 296 419 281 q 382 266 346 259 q 309 252 276 251 q 244 250 224 251 l 224 -103 l 334 -165 z m 137 150 l 166 -87 l 196 150 l 167 197 z m 135 394 l 165 346 l 196 394 l 166 625 z m 165 312 l 136 274 l 165 235 l 196 274 z m 499 557 l 473 483 l 501 403 l 533 483 z"},"|":{"x_min":0,"x_max":185,"ha":185,"o":"m 71 701 l 118 701 l 118 -165 l 71 -165 z"},"t":{"x_min":0,"x_max":355,"ha":355,"o":"m 0 396 l 0 605 l 348 605 l 348 394 l 279 559 l 232 559 l 232 41 l 276 0 l 74 0 l 119 39 l 119 559 l 66 559 z"},"M":{"x_min":0,"x_max":957,"ha":957,"o":"m -2 -165 l 98 -104 l 98 639 l -3 700 l 202 700 l 470 78 l 739 700 l 940 700 l 831 639 l 831 -108 l 934 -165 l 616 -165 l 711 -108 l 711 458 l 428 -165 l 176 458 l 176 -102 l 266 -165 z m 746 138 l 775 -99 l 805 138 l 776 185 z m 744 382 l 774 334 l 805 382 l 775 613 z m 774 300 l 745 262 l 774 223 l 805 262 z m 331 172 l 447 -38 l 384 192 l 341 226 z m 236 396 l 283 362 l 291 417 l 173 619 z m 296 331 l 283 285 l 325 260 l 335 305 z"},"g":{"x_min":0,"x_max":389,"ha":389,"o":"m 372 277 l 334 235 l 334 28 q 314 17 293 8 q 275 0 252 -6 q 230 -11 208 -11 q 163 -11 122 12 q 80 34 51 79 q 22 121 11 180 q 0 238 0 303 q 0 362 10 413 q 19 464 42 506 q 71 558 114 588 q 158 617 208 620 q 247 622 272 617 q 296 612 310 605 q 326 596 334 585 l 334 391 l 245 570 q 232 578 206 575 q 184 573 165 552 q 146 530 132 494 q 117 458 109 410 q 101 361 101 303 q 101 246 110 196 q 118 147 132 110 q 147 74 166 54 q 185 33 207 33 q 216 33 227 38 q 238 42 245 49 l 245 234 l 206 277 z"},"j":{"x_min":0,"x_max":304,"ha":304,"o":"m 296 605 l 250 565 l 250 175 q 250 126 235 87 q 228 70 218 54 q 207 39 190 26 q 174 14 152 7 q 129 0 98 0 q 69 0 50 8 q 31 16 20 25 q 7 36 0 49 l 24 75 q 28 68 36 64 q 43 60 54 57 q 66 54 83 56 q 105 58 116 74 q 128 90 133 110 q 138 133 138 161 l 138 567 l 90 605 z"},"i":{"x_min":0,"x_max":231,"ha":231,"o":"m 1 605 l 210 605 l 168 575 l 168 43 l 211 0 l 5 0 l 48 41 l 48 572 l 1 605 z"},"y":{"x_min":0,"x_max":416,"ha":416,"o":"m -3 605 l 178 605 l 148 564 l 224 393 l 298 564 l 264 605 l 390 605 l 355 564 l 256 328 l 256 43 l 292 0 l 104 0 l 144 46 l 144 325 l 42 564 l -3 605 z"},"@":{"x_min":0,"x_max":721,"ha":721,"o":"m 119 -105 q 96 -131 67 -153 q 38 -175 4 -185 q 2 -152 17 -119 q 32 -86 49 -57 l 234 175 l 287 239 l 417 401 q 422 408 431 410 q 440 411 447 416 q 472 438 492 463 q 512 488 531 514 q 517 516 514 529 q 510 542 503 553 q 492 552 482 544 q 473 536 471 537 l 437 568 q 446 577 456 580 q 467 582 478 582 q 490 582 502 580 q 514 578 525 578 l 557 547 l 567 563 q 569 558 572 560 q 576 561 578 560 q 604 592 628 621 q 651 650 675 686 q 680 687 686 690 q 692 694 695 698 q 701 700 706 697 q 710 694 711 688 q 703 686 704 677 q 705 668 701 662 l 695 662 l 606 553 l 606 547 q 604 548 604 547 q 603 546 602 545 q 610 528 591 521 l 630 494 q 638 474 644 452 q 650 429 642 406 q 641 407 628 415 q 615 423 603 433 q 605 441 608 449 q 611 457 609 467 q 604 471 597 472 q 590 472 583 472 q 576 473 570 476 q 565 479 564 487 q 553 470 538 454 q 524 439 512 423 q 499 407 490 389 q 482 371 482 349 l 401 247 l 119 -105 z m 119 15 q 104 -5 86 -24 q 69 -43 56 -62 q 42 -81 36 -100 q 31 -119 41 -138 q 56 -137 70 -132 q 83 -128 95 -120 l 401 260 l 476 355 q 479 357 480 362 q 480 368 479 370 q 479 386 491 404 q 503 423 518 440 q 532 458 546 474 q 559 489 563 500 l 544 493 q 538 498 542 502 q 547 507 544 514 l 492 449 q 474 431 461 421 q 448 411 440 406 q 432 402 428 400 q 423 398 422 396 l 119 15 z"},".":{"x_min":0,"x_max":170,"ha":170,"o":"m 40 86 l 123 86 l 123 0 l 40 0 z"},"p":{"x_min":0,"x_max":379,"ha":379,"o":"m 169 334 q 204 333 230 345 q 241 350 252 358 q 263 367 271 380 q 279 394 284 412 q 288 431 287 456 q 285 500 266 522 q 248 545 226 555 q 200 566 169 567 z m 0 0 l 67 40 l 67 560 l 11 605 l 202 605 q 217 605 245 600 q 273 595 300 580 q 327 565 348 536 q 368 508 369 460 q 370 418 359 389 q 348 360 330 341 q 313 322 290 312 q 267 301 244 296 q 222 292 202 291 q 181 290 167 291 l 167 40 l 233 0 z"},"X":{"x_min":0,"x_max":769,"ha":769,"o":"m 6 702 l 308 702 l 231 643 l 364 401 l 495 644 l 422 700 l 668 700 l 562 644 l 398 340 l 633 -102 l 756 -165 l 387 -165 l 499 -105 l 341 225 l 184 -96 l 289 -165 l -4 -165 l 115 -96 l 305 278 l 113 642 z m 410 147 l 568 -93 l 460 174 l 413 202 z m 294 360 l 343 332 l 344 388 l 181 624 z m 358 302 l 351 255 l 395 234 l 400 281 z"},"*":{"x_min":0,"x_max":812,"ha":812,"o":"m 0 0 l 406 702 l 795 0 z m 203 346 l 402 4 l 600 346 z"},"Y":{"x_min":0,"x_max":663,"ha":663,"o":"m 247 702 l 173 644 l 340 354 l 497 644 l 419 702 l 650 702 l 564 644 l 369 290 l 369 -96 l 460 -165 l 158 -165 l 260 -93 l 260 286 l 61 644 l -28 702 z m 287 151 l 321 -120 l 346 151 l 317 198 z m 230 384 l 278 354 l 281 409 l 124 629 z m 315 317 l 286 279 l 315 240 l 346 279 z"},"c":{"x_min":0,"x_max":353,"ha":353,"o":"m 334 263 l 334 28 q 314 17 293 8 q 275 0 252 -6 q 230 -11 208 -11 q 163 -11 122 12 q 80 34 51 79 q 22 121 11 180 q 0 238 0 303 q 0 362 10 413 q 19 464 42 506 q 71 558 114 588 q 158 617 208 620 q 247 622 272 617 q 296 612 310 605 q 326 596 334 585 l 334 378 l 245 570 q 232 578 206 575 q 184 573 165 552 q 146 530 132 494 q 117 458 109 410 q 101 361 101 303 q 101 246 110 196 q 118 147 132 110 q 147 74 166 54 q 185 33 207 33 q 216 33 227 38 q 238 42 245 49 z"},"!":{"x_min":0,"x_max":262,"ha":262,"o":"m -3 700 l 238 700 l 217 49 l 122 49 l 107 627 z m 115 -23 l 217 -23 l 217 -166 l 115 -166 z m 142 372 l 172 324 l 203 372 l 173 609 z m 172 261 l 143 223 l 172 184 l 203 223 z"},"/":{"x_min":0,"x_max":416,"ha":416,"o":"m 352 701 l 399 701 l 48 -165 l 1 -165 z"},"[":{"x_min":0,"x_max":251,"ha":251,"o":"m -1 762 l 225 762 l 225 718 l 88 718 l 88 -187 l 225 -187 l 225 -233 l -1 -233 z"},"6":{"x_min":0,"x_max":620,"ha":620,"o":"m 359 481 l 411 604 q 402 617 390 627 q 379 635 362 642 q 345 649 319 650 q 293 650 262 638 q 231 625 204 590 q 177 556 160 496 q 142 435 144 339 q 143 338 150 344 q 157 350 171 360 q 185 369 204 380 q 223 392 246 402 q 268 411 294 417 q 319 423 346 422 q 392 420 437 400 q 482 380 517 344 q 552 308 574 257 q 595 206 595 143 q 595 72 573 13 q 551 -46 513 -88 q 475 -130 424 -154 q 374 -177 316 -175 q 259 -174 202 -151 q 146 -128 101 -76 q 56 -23 28 63 q 1 149 1 277 q 1 365 22 444 q 44 522 84 580 q 125 639 184 674 q 242 709 316 712 q 362 713 397 703 q 432 693 457 676 q 482 658 499 636 q 516 614 527 592 z m 144 118 q 144 72 158 29 q 173 -14 197 -48 q 221 -81 250 -101 q 280 -121 310 -121 q 341 -121 371 -101 q 401 -81 425 -48 q 449 -14 464 30 q 478 73 478 119 q 478 165 462 208 q 447 252 422 286 q 398 320 368 341 q 337 362 307 362 q 276 362 247 341 q 218 320 195 286 q 172 251 158 207 q 144 163 144 118 z m 214 645 q 193 634 175 620 q 157 606 142 590 q 126 575 114 560 q 102 546 95 534 q 89 525 82 510 q 74 494 68 476 q 61 459 56 442 q 50 425 48 412 l 71 364 l 108 412 q 110 428 110 440 q 111 451 112 462 q 113 474 116 487 q 118 500 125 521 q 129 533 139 550 q 149 567 162 585 q 174 603 188 619 q 202 635 214 645 z m 31 281 l 62 241 l 93 281 l 62 319 z m 203 -113 q 178 -93 154 -53 q 130 -13 113 28 q 102 57 102 87 q 103 117 103 143 l 68 191 l 42 143 q 44 130 48 112 q 52 94 58 74 q 65 55 73 36 q 81 16 91 1 q 113 -34 138 -63 q 162 -92 203 -113 z m 530 213 l 499 139 l 532 59 l 570 139 z"},"r":{"x_min":0,"x_max":466,"ha":466,"o":"m 0 0 l 67 40 l 67 560 l 11 605 l 202 605 q 217 605 245 600 q 273 595 300 580 q 327 565 348 536 q 368 508 369 460 q 370 414 358 382 q 345 351 328 332 q 310 312 290 303 q 271 294 259 294 l 395 41 l 448 0 l 294 0 l 167 262 l 167 40 l 233 0 z m 169 334 q 204 333 230 345 q 241 350 252 358 q 263 367 271 380 q 279 394 284 412 q 288 431 287 456 q 285 500 266 522 q 248 545 226 555 q 200 566 169 567 z"},"2":{"x_min":0,"x_max":599,"ha":599,"o":"m 82 640 q 101 660 130 676 q 155 690 194 701 q 233 712 290 714 q 352 715 391 692 q 430 670 452 636 q 475 601 484 560 q 492 519 494 482 q 496 428 483 380 q 470 332 452 293 q 433 254 414 226 q 394 198 384 185 q 347 136 313 92 q 279 48 252 15 q 220 -25 192 -58 l 432 -58 l 580 49 l 495 -164 l 12 -164 q 37 -142 71 -105 q 100 -73 142 -24 q 185 26 241 99 q 290 162 318 216 q 347 269 362 312 q 377 354 382 385 q 387 416 387 434 q 388 462 383 492 q 378 523 366 550 q 353 576 330 594 q 308 611 274 612 q 249 613 231 608 q 213 603 202 598 q 188 591 179 583 q 127 536 87 500 q 70 484 54 469 q 37 454 25 442 q 13 431 6 424 q -2 417 -1 417 q 0 417 6 433 q 13 449 22 474 q 31 498 42 527 q 52 556 61 580 q 70 605 76 622 q 82 639 82 640 z m 185 -82 l 125 -112 l 185 -141 l 435 -111 z m 212 655 q 248 657 283 654 q 318 652 345 634 q 367 620 378 599 q 389 578 401 551 l 447 519 l 450 569 q 443 584 432 599 q 421 614 408 626 q 396 639 384 648 q 371 657 361 661 q 335 670 296 672 q 257 673 212 655 z m 442 479 l 413 441 l 442 402 l 473 441 z"},"{":{"x_min":0,"x_max":326,"ha":326,"o":"m 288 730 q 290 722 291 716 q 292 710 292 712 q 249 712 226 702 q 202 693 192 676 q 181 658 182 634 q 182 610 187 580 q 192 551 198 518 q 204 485 206 450 q 208 397 190 363 q 172 329 150 310 q 128 290 110 284 q 91 277 92 278 q 92 279 110 272 q 128 266 150 246 q 171 227 188 192 q 206 156 206 99 q 206 52 200 13 q 194 -26 189 -57 q 184 -88 183 -112 q 182 -135 191 -151 q 200 -167 223 -175 q 246 -183 290 -183 q 291 -195 292 -204 q 293 -212 294 -218 q 294 -224 292 -223 q 225 -225 186 -212 q 146 -200 126 -178 q 106 -156 102 -126 q 97 -95 100 -59 q 104 -23 111 16 q 118 55 121 94 q 123 122 119 144 q 115 167 107 184 q 99 200 88 212 q 77 224 65 232 q 37 250 -1 256 l -1 273 q -1 279 -1 284 q -1 289 0 289 q 58 306 83 336 q 108 367 114 408 q 120 449 113 500 q 106 550 99 606 q 94 652 110 680 q 127 707 150 720 q 178 737 202 742 q 227 748 245 749 q 263 750 274 748 q 284 747 284 750 z"},"9":{"x_min":0,"x_max":620,"ha":620,"o":"m 156 55 l 104 -68 q 117 -84 138 -96 q 156 -107 184 -116 q 213 -124 255 -122 q 286 -121 320 -107 q 355 -93 384 -58 q 414 -22 432 40 q 451 101 450 197 q 451 198 435 185 q 419 172 390 156 q 362 139 325 126 q 288 112 248 114 q 201 115 156 136 q 112 156 77 192 q 42 228 20 279 q -1 330 -1 393 q -1 463 21 522 q 43 582 81 624 q 119 666 170 689 q 220 712 278 711 q 335 710 391 687 q 447 664 492 612 q 537 559 565 472 q 593 386 593 259 q 593 170 568 92 q 544 14 500 -44 q 456 -103 395 -138 q 334 -173 260 -176 q 213 -178 169 -168 q 125 -157 88 -140 q 52 -122 26 -100 q -1 -78 -12 -56 z m 450 418 q 450 464 436 507 q 421 550 397 584 q 373 617 344 637 q 314 657 284 657 q 253 657 223 637 q 193 617 169 584 q 145 550 130 506 q 116 463 116 417 q 116 371 132 328 q 147 284 172 250 q 196 216 226 195 q 257 174 287 174 q 318 174 347 195 q 376 216 399 250 q 422 285 436 329 q 450 373 450 418 z m 380 -109 q 401 -99 419 -84 q 437 -70 452 -54 q 468 -39 480 -24 q 491 -10 499 2 q 505 11 512 26 q 520 42 526 60 q 533 77 538 94 q 544 111 546 124 l 523 172 l 486 124 q 484 107 484 96 q 483 85 482 74 q 481 62 478 49 q 476 36 469 15 q 465 3 455 -14 q 445 -31 432 -49 q 420 -67 406 -83 q 392 -99 380 -109 z m 563 255 l 532 295 l 501 255 l 532 217 z m 391 649 q 416 629 440 589 q 464 549 481 508 q 492 479 492 449 q 491 419 491 393 l 526 345 l 552 393 q 550 406 546 424 q 542 442 536 462 q 529 481 521 500 q 513 520 503 535 q 481 570 456 599 q 432 628 391 649 z m 64 323 l 95 397 l 62 477 l 24 397 z"}," ":{"x_min":0,"x_max":300,"ha":300,"o":""},"I":{"x_min":0,"x_max":355,"ha":355,"o":"m 240 -93 l 354 -165 l -1 -165 l 118 -93 l 118 629 l -1 700 l 353 700 l 240 629 z m 150 138 l 179 -99 l 209 138 l 180 185 z m 148 382 l 178 334 l 209 382 l 179 613 z m 178 300 l 149 262 l 178 223 l 209 262 z"},"H":{"x_min":0,"x_max":773,"ha":773,"o":"m 667 629 l 667 -83 l 773 -165 l 451 -165 l 556 -85 l 556 238 l 234 238 l 234 -93 l 348 -165 l -1 -165 l 118 -93 l 118 629 l -1 700 l 347 700 l 234 629 l 234 294 l 556 294 l 556 629 l 450 700 l 772 700 z m 150 138 l 176 -99 l 207 138 l 179 185 z m 148 382 l 178 334 l 207 382 l 177 613 z m 178 300 l 149 262 l 178 223 l 205 262 z m 583 138 l 609 -99 l 640 138 l 612 185 z m 581 382 l 611 334 l 640 382 l 610 613 z m 611 300 l 582 262 l 611 223 l 638 262 z"},"4":{"x_min":0,"x_max":636,"ha":636,"o":"m 484 700 l 484 123 l 568 123 q 568 123 564 112 q 561 101 556 88 q 551 74 546 63 q 542 52 541 52 l 484 52 l 484 -95 l 605 -165 l 235 -165 l 369 -93 l 369 52 l 1 52 l 1 109 l 375 700 z m 92 124 l 369 124 l 369 572 z m 401 138 l 430 -99 l 460 138 l 431 185 z m 399 382 l 429 334 l 460 382 l 430 613 z m 429 300 l 400 262 l 429 223 l 460 262 z"},"D":{"x_min":0,"x_max":611,"ha":611,"o":"m 591 307 q 598 176 562 72 q 547 28 520 -14 q 493 -57 451 -90 q 409 -124 350 -144 q 290 -165 209 -165 l 4 -165 l 80 -103 l 80 636 l 0 700 l 194 700 q 302 700 388 660 q 425 643 460 615 q 496 587 524 544 q 552 502 570 444 q 589 385 591 307 z m 333 -86 q 351 -76 376 -56 q 402 -35 426 6 q 449 48 465 116 q 481 184 478 289 q 478 371 459 441 q 451 471 438 500 q 424 530 404 556 q 383 583 354 603 q 326 623 288 634 q 281 636 268 637 q 255 638 242 638 q 228 639 215 639 q 202 639 195 639 l 195 -101 q 226 -102 253 -100 q 276 -98 299 -96 q 322 -93 333 -86 z m 107 145 l 133 -92 l 164 145 l 136 192 z m 105 389 l 135 341 l 164 389 l 134 620 z m 135 307 l 106 269 l 135 230 l 162 269 z m 400 614 q 410 604 422 590 q 434 576 445 561 q 456 546 464 531 q 473 516 477 504 q 483 487 488 462 q 494 438 498 405 l 529 357 l 555 405 q 553 418 548 434 q 542 449 534 465 q 527 481 519 494 q 511 508 505 517 q 489 539 462 566 q 435 593 400 614 z m 536 323 l 507 285 l 536 246 l 563 285 z m 405 -77 q 440 -56 465 -26 q 490 3 510 34 q 529 63 542 98 q 556 132 559 158 l 533 206 l 502 158 q 502 132 500 108 q 497 85 485 50 q 473 15 450 -21 q 426 -57 405 -77 z"},"^":{"x_min":0,"x_max":789,"ha":789,"o":"m 761 469 l 766 455 l 734 467 l 682 470 l 655 467 l 633 459 l 614 445 l 603 435 l 597 431 l 574 397 l 560 372 l 556 369 l 551 360 l 545 349 l 512 316 l 512 314 l 523 310 l 484 287 l 483 285 l 483 282 l 491 269 l 492 253 l 498 230 l 488 204 l 482 194 l 464 190 l 459 188 l 451 193 l 433 190 l 428 183 l 428 178 l 408 150 l 400 116 l 390 100 l 390 98 l 399 86 l 400 72 l 404 55 l 429 51 l 468 44 l 488 42 l 556 32 l 560 31 l 562 24 l 577 13 l 585 7 l 591 -3 l 609 -23 l 639 -80 l 646 -101 l 659 -125 l 657 -132 l 662 -145 l 660 -146 l 660 -149 l 662 -150 l 673 -149 l 675 -151 l 673 -155 l 663 -155 l 662 -156 l 663 -166 l 662 -168 l 657 -156 l 574 -169 l 571 -172 l 536 -175 l 494 -178 l 489 -179 l 468 -178 l 464 -178 l 458 -174 l 446 -170 l 428 -158 l 423 -156 l 413 -158 l 350 -107 l 309 -75 l 304 -71 l 287 -75 l 252 -73 l 241 -69 l 226 -53 l 221 -42 l 210 -30 l 201 -28 l 194 -21 l 193 -13 l 190 -7 l 187 -5 l 183 -2 l 179 -2 l 129 -49 l 122 -52 l 108 -55 l 93 -62 l 71 -66 l 31 -78 l 29 -80 l 25 -77 l 5 -82 l 4 -81 l 6 -76 l 9 -60 l 16 -46 l 24 -34 l 42 -13 l 42 -10 l 86 23 l 94 28 l 120 66 l 143 111 l 135 127 l 135 130 l 135 131 l 131 131 l 123 120 l 112 93 l 91 62 l 57 49 l 54 46 l 45 44 l 32 39 l 25 37 l 24 37 l 26 57 l 37 95 l 40 103 l 40 110 l 37 113 l 32 119 l 28 124 l 29 136 l 37 158 l 37 178 l 37 181 l 44 184 l 79 221 l 83 227 l 83 233 l 113 250 l 170 272 l 172 276 l 179 279 l 207 302 l 210 308 l 222 327 l 233 361 l 233 362 l 210 365 l 197 361 l 192 361 l 190 362 l 202 385 l 205 391 l 217 403 l 221 403 l 222 403 l 222 405 l 221 406 l 189 403 l 184 403 l 182 403 l 174 419 l 173 429 l 169 431 l 163 454 l 161 479 l 157 500 l 157 503 l 156 504 l 164 551 l 188 614 l 221 693 l 227 700 l 231 701 l 251 700 l 285 693 l 287 690 l 301 689 l 335 671 l 359 653 l 362 651 l 365 651 l 367 652 l 398 614 l 399 608 l 404 602 l 403 594 l 398 582 l 394 576 l 394 574 l 395 573 l 416 578 l 439 579 l 466 582 l 500 581 l 527 582 l 536 579 l 580 573 l 620 559 l 637 549 l 639 549 l 640 551 l 634 558 l 644 556 l 660 546 l 668 546 l 720 513 l 732 504 l 734 500 l 734 495 l 761 469 z m 211 411 l 244 415 l 244 423 l 242 423 l 241 421 l 236 423 l 231 420 l 218 419 l 205 415 l 189 417 l 187 420 l 181 444 l 175 473 l 172 494 l 173 506 l 172 511 l 173 522 l 177 549 l 194 598 l 195 604 l 199 612 l 210 642 l 227 676 l 227 681 l 231 684 l 235 684 l 267 681 l 305 666 l 336 648 l 382 608 l 382 603 l 372 579 l 364 564 l 365 564 l 372 568 l 380 569 l 380 577 l 383 579 l 395 602 l 389 614 l 378 630 l 362 644 l 347 656 l 314 679 l 290 684 l 265 689 l 236 693 l 228 695 l 224 691 l 212 659 l 198 627 l 181 573 l 167 527 l 166 518 l 164 483 l 172 452 l 178 437 l 179 428 l 182 424 l 181 420 l 183 411 l 189 411 l 202 413 l 211 411 z m 244 524 l 233 526 l 231 524 l 230 513 l 231 511 l 242 516 l 244 519 l 244 524 z m 235 538 l 238 538 l 238 540 l 235 540 l 235 538 z m 239 552 l 255 568 l 265 574 l 251 581 l 244 573 l 239 574 l 230 568 l 226 561 l 223 549 l 226 549 l 228 556 l 239 566 l 241 563 l 239 559 l 236 549 l 239 549 l 239 551 l 239 552 z m 217 508 l 215 511 l 215 514 l 218 518 l 221 527 l 218 528 l 212 528 l 205 508 l 207 506 l 216 498 l 218 500 l 218 506 l 217 508 z m 230 429 l 239 449 l 235 452 l 223 459 l 208 425 l 215 425 l 230 429 z m 242 443 l 239 436 l 236 429 l 244 430 l 244 434 l 247 440 l 246 444 l 242 445 l 242 443 z m 210 441 l 217 463 l 216 464 l 204 467 l 202 460 l 198 454 l 194 440 l 190 434 l 190 428 l 192 424 l 197 424 l 199 425 l 210 441 z m 190 493 l 182 477 l 183 477 l 197 488 l 193 493 l 190 493 z m 181 484 l 184 497 l 178 500 l 181 484 z m 198 469 l 183 470 l 187 448 l 189 443 l 198 469 z m 195 498 l 208 493 l 208 497 l 199 506 l 201 517 l 198 517 l 194 522 l 181 527 l 179 523 l 178 509 l 181 506 l 187 506 l 195 498 z m 192 546 l 187 538 l 187 533 l 198 527 l 202 540 l 197 546 l 199 548 l 201 569 l 210 579 l 211 587 l 216 596 l 226 594 l 228 601 l 231 610 l 218 615 l 213 602 l 210 588 l 202 577 l 197 564 l 192 546 z m 188 556 l 205 598 l 216 618 l 210 621 l 194 578 l 188 556 z m 212 561 l 221 564 l 222 572 l 212 573 l 211 572 l 210 563 l 211 561 l 212 561 z m 216 556 l 211 556 l 208 546 l 210 544 l 212 544 l 216 547 l 216 556 z m 217 579 l 230 577 l 231 578 l 231 581 l 226 586 l 222 586 l 217 584 l 217 579 z m 205 528 l 204 526 l 205 527 l 205 528 z m 215 534 l 224 539 l 224 542 l 222 542 l 218 539 l 213 539 l 213 534 l 215 534 z m 276 602 l 276 607 l 275 604 l 270 610 l 269 612 l 256 613 l 251 610 l 239 581 l 244 581 l 244 582 l 256 601 l 269 603 l 271 601 l 275 601 l 276 602 z m 278 584 l 276 577 l 280 569 l 282 569 l 284 572 l 285 569 l 291 569 l 293 572 l 293 578 l 293 578 l 278 584 z m 273 588 l 265 594 l 261 594 l 260 586 l 270 581 l 271 582 l 273 588 z m 239 601 l 241 604 l 239 607 l 236 607 l 235 601 l 232 597 l 235 597 l 239 601 z m 252 556 l 249 532 l 250 531 l 261 519 l 282 523 l 291 526 l 301 527 l 310 531 l 314 534 l 320 538 l 320 540 l 319 540 l 301 547 l 290 556 l 277 563 l 267 566 l 261 564 l 252 556 z m 296 566 l 298 564 l 313 559 l 314 561 l 316 567 l 315 567 l 314 568 l 310 572 l 300 574 l 296 566 z m 319 558 l 320 556 l 336 551 l 336 552 l 327 561 l 320 561 l 319 558 z m 321 572 l 336 564 l 347 558 l 350 558 l 355 566 l 355 573 l 347 581 l 325 592 l 314 599 l 291 610 l 276 617 l 249 630 l 247 628 l 244 630 l 218 644 l 217 642 l 213 628 l 218 628 l 226 622 l 246 613 l 250 617 l 260 619 l 270 617 l 277 610 l 278 612 l 281 609 l 282 603 l 280 601 l 280 597 l 281 597 l 287 592 l 309 582 l 321 572 z m 318 622 l 326 644 l 323 644 l 321 646 l 311 650 l 311 647 l 295 615 l 298 613 l 310 609 l 318 622 z m 330 635 l 321 621 l 315 607 l 330 599 l 342 621 l 344 630 l 342 633 l 334 638 l 330 638 l 330 635 z m 305 648 l 305 653 l 304 653 l 298 657 l 293 659 l 290 655 l 280 632 l 276 625 l 278 621 l 281 621 l 291 619 l 296 633 l 305 648 z m 271 628 l 287 663 l 269 671 l 252 635 l 271 627 l 271 628 z m 249 642 l 262 671 l 257 676 l 250 676 l 244 673 l 244 671 l 241 664 l 239 655 l 233 648 l 233 644 l 235 644 l 247 640 l 249 642 z m 228 647 l 239 676 l 233 677 l 222 650 l 228 647 z m 352 590 l 363 607 l 364 612 l 352 625 l 347 625 l 345 615 l 336 602 l 335 594 l 336 594 l 339 592 l 350 586 l 352 587 l 352 590 z m 359 590 l 355 581 l 360 579 l 360 581 l 369 596 l 370 604 l 367 604 l 359 590 z m 201 370 l 239 375 l 249 380 l 249 383 l 247 382 l 244 382 l 242 385 l 257 405 l 273 417 l 273 420 l 271 420 l 266 414 l 239 405 l 216 394 l 208 383 l 201 370 z m 252 419 l 264 421 l 267 425 l 266 429 l 264 429 l 262 430 l 260 435 l 255 435 l 252 419 z m 172 180 l 172 159 l 177 152 l 193 144 l 213 145 l 221 154 l 221 159 l 215 165 l 207 180 l 201 180 l 189 179 l 187 175 l 184 161 l 190 160 l 201 158 l 201 161 l 195 167 l 194 165 l 192 160 l 190 160 l 189 161 l 188 165 l 194 173 l 197 173 l 210 159 l 204 150 l 202 152 l 183 152 l 178 159 l 182 181 l 184 184 l 194 185 l 193 187 l 178 187 l 172 180 z m 239 100 l 218 90 l 215 85 l 213 76 l 217 71 l 222 67 l 236 69 l 239 72 l 239 73 l 277 104 l 251 109 l 249 107 l 239 100 z m 228 113 l 230 111 l 231 113 l 228 113 z m 212 101 l 208 98 l 211 98 l 215 101 l 212 101 z m 204 100 l 208 104 l 216 110 l 217 109 l 218 109 l 218 111 l 201 115 l 193 113 l 194 113 l 202 107 l 204 100 z m 103 238 l 103 236 l 129 224 l 145 213 l 145 208 l 148 196 l 147 195 l 147 194 l 152 184 l 147 127 l 158 113 l 169 98 l 172 106 l 183 121 l 188 121 l 189 120 l 204 124 l 212 120 l 212 121 l 210 127 l 208 129 l 194 131 l 193 130 l 179 135 l 169 145 l 163 173 l 158 181 l 158 188 l 152 199 l 152 204 l 148 247 l 156 258 l 154 258 l 138 252 l 117 245 l 103 238 z m 173 81 l 172 81 l 172 78 l 173 78 l 173 81 z m 63 60 l 71 62 l 70 64 l 66 65 l 40 81 l 31 44 l 32 44 l 49 51 l 63 60 z m 91 73 l 106 100 l 104 100 l 96 93 l 88 90 l 86 87 l 77 82 l 77 77 l 70 75 l 57 80 l 83 65 l 85 67 l 91 73 z m 54 90 l 58 87 l 57 90 l 54 90 z m 140 159 l 143 181 l 137 198 l 123 211 l 111 216 l 93 221 l 80 214 l 58 190 l 55 181 l 49 168 l 45 152 l 42 144 l 42 121 l 58 113 l 66 111 l 83 104 l 112 134 l 122 139 l 140 159 z m 34 -71 l 37 -66 l 35 -63 l 29 -44 l 23 -52 l 17 -62 l 19 -66 l 16 -69 l 15 -76 l 19 -76 l 21 -73 l 26 -73 l 29 -71 l 34 -71 z m 91 -46 l 91 -43 l 80 -35 l 78 -28 l 75 -13 l 77 -2 l 73 -2 l 69 -3 l 58 -12 l 51 -10 l 32 -30 l 32 -34 l 37 -46 l 42 -60 l 48 -66 l 48 -65 l 39 -43 l 40 -42 l 39 -34 l 42 -28 l 45 -31 l 50 -52 l 54 -58 l 73 -55 l 77 -52 l 79 -52 l 84 -53 l 88 -46 l 91 -46 z m 174 2 l 174 4 l 170 8 l 166 13 l 167 15 l 167 21 l 164 24 l 162 47 l 163 51 l 166 65 l 164 67 l 162 71 l 163 86 l 161 90 l 153 95 l 147 95 l 106 27 l 97 18 l 88 10 l 84 3 l 83 -22 l 97 -40 l 132 -34 l 174 2 z m 178 100 l 174 86 l 175 85 l 177 85 l 181 87 l 178 95 l 187 107 l 189 104 l 189 101 l 184 98 l 183 93 l 187 93 l 188 93 l 194 98 l 197 106 l 195 106 l 194 107 l 183 109 l 178 100 z m 201 78 l 197 86 l 194 86 l 183 81 l 183 78 l 182 77 l 177 75 l 175 65 l 178 65 l 182 69 l 201 78 z m 184 28 l 210 62 l 207 69 l 204 69 l 195 66 l 181 58 l 178 51 l 175 13 l 178 10 l 179 10 l 188 3 l 188 8 l 187 10 l 184 28 z m 224 49 l 226 57 l 216 58 l 212 51 l 195 31 l 198 13 l 205 -7 l 208 -21 l 215 21 l 224 49 z m 233 -17 l 239 -13 l 235 -13 l 232 -11 l 233 -17 l 233 -17 z m 233 3 l 239 8 l 239 8 l 235 10 l 235 12 l 232 2 l 232 -7 l 233 3 z m 259 -60 l 275 -60 l 269 -58 l 262 -52 l 260 -52 l 255 -55 l 255 -58 l 256 -58 l 259 -60 z m 285 -62 l 287 -60 l 282 -60 l 282 -62 l 285 -62 z m 287 -53 l 287 -49 l 278 -43 l 273 -42 l 269 -44 l 269 -47 l 275 -53 l 287 -53 z m 282 -35 l 284 -35 l 284 -34 l 282 -34 l 282 -35 z m 301 41 l 316 55 l 327 57 l 336 66 l 352 69 l 365 66 l 365 69 l 353 73 l 333 75 l 310 69 l 300 62 l 298 57 l 280 35 l 271 26 l 271 21 l 271 17 l 271 17 l 273 -13 l 271 17 l 275 21 l 276 21 l 285 23 l 285 24 l 301 41 z m 310 21 l 320 15 l 315 21 l 310 21 z m 360 -18 l 360 -17 l 359 -17 l 360 -18 z m 374 -105 l 374 -94 l 370 -82 l 368 -42 l 369 -78 l 368 -100 l 372 -105 l 374 -105 z m 394 -119 l 398 -121 l 396 -111 l 392 -82 l 394 -119 z m 421 -136 l 421 -131 l 418 -119 l 411 -44 l 408 -39 l 407 -39 l 409 -47 l 408 -48 l 416 -121 l 418 -136 l 421 -136 z m 421 -53 l 421 -53 l 421 -47 l 421 -47 l 421 -53 z m 655 -150 l 655 -148 l 651 -148 l 615 -156 l 655 -150 z m 646 -145 l 651 -142 l 646 -140 l 637 -136 l 634 -134 l 609 -126 l 575 -109 l 564 -100 l 543 -92 l 528 -89 l 523 -86 l 523 -82 l 487 -69 l 489 -72 l 487 -75 l 486 -73 l 476 -71 l 476 -73 l 477 -86 l 476 -89 l 474 -89 l 473 -88 l 468 -66 l 459 -63 l 459 -65 l 467 -101 l 464 -105 l 463 -105 l 457 -96 l 449 -58 l 446 -55 l 442 -55 l 442 -60 l 446 -63 l 448 -89 l 451 -104 l 451 -134 l 449 -136 l 446 -134 l 442 -111 l 437 -89 l 432 -48 l 429 -48 l 433 -96 l 437 -148 l 453 -156 l 482 -163 l 510 -161 l 605 -150 l 624 -146 l 646 -145 z m 591 -109 l 603 -116 l 619 -122 l 603 -112 l 591 -109 z m 433 39 l 365 44 l 350 49 l 335 49 l 305 31 l 305 28 l 307 28 l 326 18 l 329 13 l 382 -7 l 390 -13 l 429 -34 l 453 -43 l 528 -77 l 554 -89 l 594 -105 l 634 -125 l 646 -132 l 648 -132 l 648 -131 l 629 -87 l 605 -44 l 561 7 l 538 21 l 523 21 l 510 24 l 464 33 l 451 32 l 433 39 z m 392 75 l 374 93 l 360 106 l 353 109 l 350 106 l 345 106 l 338 103 l 326 100 l 298 95 l 293 91 l 276 85 l 257 65 l 241 32 l 235 12 l 236 13 l 241 15 l 242 15 l 244 15 l 246 15 l 246 23 l 255 49 l 264 62 l 266 62 l 276 72 l 303 91 l 305 87 l 300 82 l 293 78 l 271 60 l 262 47 l 257 33 l 251 5 l 252 5 l 252 12 l 257 15 l 260 15 l 264 17 l 262 26 l 266 33 l 301 73 l 314 78 l 315 77 l 339 81 l 359 80 l 369 75 l 369 77 l 365 81 l 347 93 l 347 95 l 350 98 l 352 96 l 359 93 l 367 85 l 380 72 l 384 67 l 384 65 l 389 60 l 392 60 l 396 58 l 396 60 l 395 69 l 392 75 z m 404 154 l 413 175 l 409 184 l 401 195 l 374 210 l 350 214 l 347 213 l 342 208 l 342 199 l 323 178 l 319 168 l 276 121 l 276 119 l 278 119 l 280 120 l 298 124 l 301 120 l 290 114 l 296 113 l 315 121 l 323 124 l 345 121 l 363 115 l 370 116 l 380 107 l 384 107 l 384 109 l 388 113 l 389 118 l 399 135 l 404 154 z m 438 198 l 442 199 l 441 213 l 441 208 l 437 204 l 436 198 l 438 198 z m 446 249 l 448 257 l 446 257 l 446 255 l 442 253 l 437 250 l 429 252 l 428 250 l 426 252 l 421 252 l 392 250 l 379 248 l 350 239 l 333 230 l 321 221 l 277 216 l 271 214 l 270 216 l 269 216 l 266 213 l 262 213 l 260 216 l 261 216 l 262 221 l 269 245 l 275 276 l 273 291 l 275 300 l 271 303 l 269 311 l 266 311 l 261 320 l 260 328 l 256 340 l 257 374 l 255 374 l 250 370 l 242 367 l 231 337 l 241 346 l 242 345 l 242 342 l 232 331 l 230 322 l 218 305 l 193 276 l 187 276 l 177 267 l 174 244 l 175 239 l 174 238 l 177 218 l 189 195 l 198 193 l 208 189 l 216 183 l 216 178 l 228 161 l 230 147 l 232 147 l 244 142 l 247 138 l 276 135 l 301 163 l 318 183 l 321 200 l 320 204 l 323 207 l 353 223 l 374 221 l 401 214 l 418 203 l 424 183 l 430 216 l 432 237 l 436 242 l 439 238 l 439 236 l 446 249 z m 287 285 l 287 282 l 285 279 l 284 279 l 284 274 l 282 268 l 284 263 l 301 241 l 314 233 l 319 233 l 327 236 l 327 238 l 331 242 l 335 245 l 316 255 l 301 268 l 295 277 l 287 285 z m 320 272 l 321 271 l 320 269 l 320 266 l 330 262 l 339 257 l 345 252 l 347 252 l 347 253 l 342 258 l 342 263 l 331 272 l 330 276 l 323 277 l 320 272 z m 334 288 l 335 287 l 345 287 l 359 280 l 368 279 l 370 282 l 365 285 l 359 285 l 354 288 l 338 291 l 334 288 z m 300 233 l 281 254 l 277 238 l 269 219 l 291 227 l 305 230 l 300 233 z m 476 199 l 476 201 l 471 207 l 468 216 l 464 219 l 463 224 l 458 249 l 459 250 l 459 255 l 458 257 l 459 258 l 459 263 l 457 263 l 449 229 l 451 214 l 458 199 l 464 196 l 476 199 z m 486 267 l 480 279 l 484 258 l 487 224 l 484 214 l 483 214 l 478 218 l 474 229 l 471 253 l 472 274 l 471 276 l 469 247 l 473 223 l 480 205 l 483 205 l 484 207 l 487 219 l 491 229 l 486 267 z m 487 294 l 507 305 l 494 305 l 489 300 l 487 294 z m 532 362 l 534 388 l 530 408 l 527 410 l 530 417 l 532 437 l 512 483 l 494 504 l 484 508 l 468 514 l 426 523 l 424 522 l 421 524 l 376 528 l 368 527 l 390 524 l 396 518 l 395 517 l 350 516 l 349 517 l 271 509 l 241 500 l 233 497 l 230 492 l 218 488 l 208 477 l 211 477 l 232 472 l 255 457 l 280 426 l 287 428 l 293 434 l 307 441 l 327 457 l 342 467 l 345 464 l 344 463 l 330 452 l 336 454 l 350 463 l 353 460 l 352 459 l 352 457 l 354 457 l 355 459 l 370 462 l 388 464 l 396 462 l 396 460 l 395 459 l 382 457 l 333 446 l 301 428 l 301 426 l 318 428 l 323 423 l 334 392 l 345 372 l 362 338 l 365 341 l 368 338 l 365 336 l 359 331 l 357 332 l 349 342 l 345 343 l 347 336 l 345 334 l 344 336 l 335 352 l 331 352 l 327 349 l 323 345 l 314 343 l 304 346 l 300 351 l 298 354 l 296 365 l 304 376 l 305 383 l 284 386 l 281 388 l 284 391 l 298 394 l 310 392 l 310 394 l 305 400 l 298 417 l 290 420 l 259 390 l 260 388 l 264 388 l 265 390 l 269 386 l 269 385 l 280 383 l 285 379 l 285 375 l 284 374 l 282 374 l 281 375 l 266 377 l 266 376 l 262 352 l 265 334 l 277 310 l 311 273 l 314 273 l 314 274 l 318 284 l 319 294 l 321 297 l 339 298 l 363 292 l 376 287 l 383 280 l 379 276 l 368 271 l 353 253 l 357 253 l 359 254 l 387 263 l 411 266 l 416 263 l 428 264 l 441 271 l 467 310 l 483 334 l 483 337 l 487 341 l 491 346 l 497 382 l 494 382 l 478 372 l 449 362 l 426 360 l 421 357 l 380 354 l 355 357 l 347 370 l 350 372 l 380 369 l 448 374 l 461 379 l 491 387 l 521 395 l 522 394 l 522 392 l 516 387 l 503 385 l 500 345 l 497 342 l 494 342 l 489 333 l 489 326 l 486 321 l 466 282 l 468 282 l 482 298 l 497 322 l 505 332 l 507 331 l 507 327 l 505 323 l 502 314 l 503 314 l 508 320 l 523 342 l 532 362 z m 739 475 l 739 479 l 726 492 l 726 497 l 720 503 l 698 519 l 680 528 l 674 532 l 664 534 l 659 532 l 651 538 l 646 538 l 623 548 l 597 558 l 559 567 l 520 572 l 463 573 l 456 569 l 453 567 l 437 567 l 379 556 l 372 551 l 363 546 l 334 529 l 339 529 l 355 531 l 359 533 l 364 533 l 446 529 l 461 524 l 488 511 l 500 509 l 517 493 l 540 455 l 543 445 l 541 444 l 538 419 l 534 413 l 534 406 l 541 397 l 541 395 l 543 391 l 541 387 l 543 385 l 543 380 l 543 379 l 543 370 l 546 372 l 557 390 l 566 401 l 579 424 l 614 457 l 644 469 l 663 477 l 697 482 l 727 479 l 739 475 z m 298 343 l 287 357 l 284 369 l 285 369 l 293 354 l 301 343 l 325 338 l 326 338 l 327 337 l 326 336 l 309 338 l 298 343 z m 486 360 l 487 351 l 487 349 l 484 346 l 471 345 l 456 341 l 456 338 l 464 327 l 464 323 l 456 331 l 453 331 l 441 317 l 432 308 l 421 303 l 411 305 l 408 310 l 411 323 l 409 325 l 400 322 l 394 318 l 392 320 l 401 326 l 390 328 l 390 331 l 416 338 l 451 354 l 477 367 l 482 366 l 486 360 z m 421 294 l 400 302 l 392 310 l 392 313 l 401 305 l 416 300 l 436 302 l 437 303 l 438 302 l 421 294 z m 367 300 l 363 300 l 360 302 l 362 305 l 367 305 l 369 302 l 367 300 z"},"0":{"x_min":0,"x_max":593,"ha":593,"o":"m 512 532 q 538 478 552 408 q 565 339 565 263 q 565 219 560 174 q 554 130 544 88 q 533 46 518 9 q 504 -28 486 -57 q 448 -118 396 -143 q 343 -168 283 -168 q 223 -168 166 -136 q 109 -105 70 -45 q 30 13 15 94 q 0 175 0 263 q 0 343 12 414 q 25 486 57 543 q 96 615 156 657 q 216 699 283 699 q 353 699 412 654 q 471 610 512 532 z m 281 -118 q 311 -118 340 -88 q 368 -58 390 -6 q 413 46 426 116 q 440 185 440 263 q 440 342 426 414 q 412 485 390 538 q 367 591 338 622 q 310 654 280 654 q 251 654 222 622 q 193 591 170 538 q 147 485 133 414 q 119 342 119 263 q 119 185 134 116 q 148 46 171 -6 q 194 -58 223 -88 q 252 -118 281 -118 z m 182 628 q 147 607 126 580 q 106 553 90 531 q 84 522 76 508 q 69 495 62 479 q 55 463 50 448 q 45 432 44 419 l 70 371 l 101 419 q 105 452 108 476 q 112 501 118 518 q 122 530 128 545 q 135 560 144 575 q 152 590 162 604 q 171 618 182 628 z m 35 286 l 62 247 l 91 286 l 62 324 z m 194 -113 q 183 -103 170 -86 q 157 -70 145 -50 q 133 -30 123 -9 q 113 12 109 30 q 102 61 99 92 q 96 122 96 148 l 65 196 l 39 148 q 42 122 52 86 q 61 51 77 20 q 102 -29 130 -60 q 159 -92 194 -113 z m 379 628 q 389 618 399 604 q 409 590 418 575 q 426 560 432 545 q 439 530 443 518 q 449 501 452 476 q 456 452 460 419 l 491 371 l 517 419 q 515 432 510 448 q 506 463 499 479 q 492 495 484 508 q 477 522 471 531 q 455 553 434 580 q 414 607 379 628 z m 499 324 l 470 286 l 499 247 l 526 286 z m 367 -113 q 402 -92 430 -60 q 459 -29 484 20 q 500 51 510 86 q 519 122 522 148 l 496 196 l 465 148 q 465 122 462 92 q 459 61 452 30 q 448 12 438 -9 q 428 -30 416 -50 q 404 -70 390 -86 q 377 -103 367 -113 z"},"F":{"x_min":0,"x_max":615,"ha":615,"o":"m 0 700 l 571 700 l 613 495 l 484 644 l 221 644 l 221 294 l 398 294 l 467 428 l 467 107 l 400 238 l 221 238 l 221 -100 l 318 -165 l 2 -165 l 102 -97 l 102 629 z m 133 149 l 159 -88 l 190 149 l 162 196 z m 131 393 l 161 345 l 190 393 l 160 624 z m 161 311 l 132 273 l 161 234 l 188 273 z"},"k":{"x_min":0,"x_max":468,"ha":468,"o":"m 152 40 l 195 0 l 0 0 l 50 42 l 50 571 l 2 605 l 195 605 l 152 571 l 152 375 l 281 572 l 253 605 l 389 605 l 342 572 l 199 349 l 403 41 l 461 0 l 227 0 l 280 36 l 152 238 z"},"u":{"x_min":0,"x_max":401,"ha":401,"o":"m 198 605 l 158 567 l 158 161 q 158 131 163 108 q 168 88 179 72 q 190 56 213 56 q 240 56 254 73 q 267 90 272 111 q 278 136 278 167 l 278 566 l 241 605 l 389 605 l 349 567 l 349 172 q 350 124 335 86 q 329 70 318 54 q 307 39 290 27 q 274 15 252 8 q 229 0 198 0 q 167 0 144 8 q 121 15 104 27 q 88 39 77 54 q 66 70 60 87 q 44 126 46 175 l 46 565 l 0 605 z"},"]":{"x_min":0,"x_max":256,"ha":256,"o":"m 225 -233 l -1 -233 l -1 -187 l 136 -187 l 136 718 l -1 718 l -1 762 l 225 762 z"},"U":{"x_min":0,"x_max":731,"ha":731,"o":"m 324 702 l 229 644 l 229 66 q 230 18 248 -19 q 255 -35 267 -50 q 279 -66 297 -78 q 315 -90 340 -97 q 365 -104 398 -104 q 428 -104 450 -96 q 473 -89 489 -76 q 505 -64 516 -48 q 526 -32 533 -15 q 549 25 549 75 l 549 642 l 465 702 l 714 702 l 624 644 l 624 82 q 626 13 600 -42 q 589 -65 572 -88 q 554 -110 527 -127 q 500 -144 463 -154 q 426 -165 377 -165 q 321 -165 280 -154 q 238 -143 208 -126 q 178 -108 158 -86 q 137 -63 125 -39 q 96 16 96 86 l 96 641 l -1 702 z m 134 404 l 164 356 l 193 404 l 163 635 z m 164 322 l 135 284 l 164 245 l 191 284 z m 240 -86 q 217 -58 206 -26 q 195 7 190 43 q 186 70 188 96 q 191 123 191 149 l 162 197 l 134 149 q 134 109 139 79 q 144 49 155 23 q 169 -11 191 -40 q 213 -69 240 -86 z"},"o":{"x_min":0,"x_max":430,"ha":430,"o":"m 376 498 q 396 459 406 408 q 416 358 416 303 q 416 271 412 238 q 408 206 400 176 q 393 145 382 118 q 371 91 358 70 q 330 25 291 7 q 252 -11 208 -11 q 164 -11 122 12 q 80 35 51 79 q 22 121 11 180 q 0 238 0 303 q 0 361 10 412 q 19 464 42 506 q 71 559 114 590 q 158 620 208 620 q 259 620 303 588 q 347 555 376 498 z m 207 33 q 229 33 248 54 q 266 75 280 111 q 293 147 301 196 q 309 246 309 303 q 309 361 301 410 q 293 460 279 497 q 265 534 246 555 q 228 576 206 576 q 185 576 166 555 q 146 534 132 497 q 118 460 110 410 q 101 361 101 303 q 101 246 110 196 q 118 147 132 111 q 147 75 166 54 q 186 33 207 33 z"},"N":{"x_min":0,"x_max":735,"ha":735,"o":"m 17 -165 l 141 -90 l 141 628 l 2 700 l 202 700 l 585 152 l 585 629 l 489 700 l 733 700 l 650 629 l 650 -191 l 213 486 l 213 -91 l 313 -165 z m 455 183 l 609 0 l 503 215 l 454 239 z m 320 385 l 371 362 l 369 418 l 216 594 z m 390 334 l 387 286 l 432 269 l 433 316 z"},"+":{"x_min":0,"x_max":547,"ha":547,"o":"m 50 304 l 50 356 l 248 356 l 248 551 l 300 551 l 300 356 l 495 356 l 495 304 l 300 304 l 300 103 l 248 103 l 248 304 l 50 304 z"},"G":{"x_min":0,"x_max":763,"ha":763,"o":"m 751 242 l 633 174 l 633 -108 q 608 -127 570 -142 q 538 -155 488 -165 q 438 -175 369 -175 q 270 -175 200 -140 q 129 -104 85 -44 q 41 16 20 96 q 0 177 0 267 q 0 354 23 432 q 46 511 92 572 q 138 633 208 670 q 277 707 369 712 q 438 715 480 708 q 523 701 548 691 q 577 680 591 663 l 635 483 l 463 651 q 456 654 444 656 q 432 657 418 658 q 404 658 390 658 q 375 658 364 657 q 310 654 268 623 q 225 592 196 540 q 166 488 150 418 q 134 348 134 267 q 134 186 150 117 q 165 48 194 -4 q 223 -55 266 -86 q 309 -117 365 -121 q 391 -123 408 -124 q 426 -124 442 -121 q 457 -118 474 -110 q 492 -102 518 -85 l 518 173 l 395 242 z m 210 619 q 175 598 148 571 q 121 544 105 522 q 99 513 91 500 q 83 486 76 470 q 68 454 62 438 q 56 423 55 410 l 81 362 l 112 410 q 116 443 122 468 q 127 492 133 509 q 137 521 146 536 q 154 551 165 566 q 176 581 188 595 q 199 609 210 619 z m 40 279 l 67 240 l 96 279 l 67 317 z m 204 -93 q 183 -73 160 -37 q 136 -1 124 34 q 112 69 110 92 q 107 116 107 142 l 76 190 l 50 142 q 53 116 66 82 q 80 47 99 18 q 119 -13 144 -42 q 169 -72 204 -93 z m 545 -35 l 575 -83 l 604 -35 l 574 196 z"},"q":{"x_min":0,"x_max":500,"ha":500,"o":"m -21 -48 q -19 -28 -8 -12 q 4 3 20 14 q 35 24 54 30 q 72 35 89 36 q 78 45 68 56 q 59 66 51 79 q 22 121 11 180 q 0 238 0 303 q 0 361 10 412 q 19 464 42 506 q 71 559 114 590 q 158 620 208 620 q 259 620 303 588 q 347 555 376 498 q 396 459 406 408 q 416 358 416 303 q 416 271 412 238 q 408 206 400 176 q 393 145 382 118 q 371 91 358 70 q 344 47 326 32 q 308 16 288 6 q 302 -9 320 -20 q 338 -31 355 -38 q 373 -47 393 -52 l 554 -14 l 407 -135 q 388 -138 372 -137 q 356 -136 344 -132 q 331 -129 322 -124 q 313 -120 308 -117 q 279 -99 258 -79 q 237 -59 214 -42 q 192 -26 164 -16 q 136 -6 94 -8 q 65 -10 36 -22 q 6 -34 -8 -66 z m 101 303 q 101 255 107 212 q 113 170 124 136 q 134 101 148 76 q 163 52 180 41 q 200 40 220 35 q 239 41 256 64 q 272 87 284 122 q 296 158 302 204 q 309 250 309 303 q 309 361 301 410 q 293 460 279 497 q 265 534 246 555 q 228 576 206 576 q 185 576 166 555 q 146 534 132 497 q 118 460 110 410 q 101 361 101 303 z"},"d":{"x_min":0,"x_max":405,"ha":405,"o":"m 392 331 q 397 236 373 162 q 363 130 346 100 q 328 71 301 48 q 274 25 236 12 q 198 -2 147 0 l 3 0 l 56 43 l 56 562 l 0 607 l 136 607 q 206 607 261 579 q 285 567 308 548 q 330 528 348 498 q 366 468 378 427 q 390 386 392 331 z m 203 55 q 215 62 232 76 q 249 91 264 120 q 279 149 288 196 q 298 244 297 318 q 300 375 289 423 q 284 444 276 465 q 269 486 257 504 q 245 523 228 538 q 210 553 187 561 q 177 564 172 564 q 167 564 157 564 l 157 45 q 165 44 173 45 q 189 47 203 55 z"},"1":{"x_min":0,"x_max":500,"ha":500,"o":"m 2 522 l 191 699 l 276 699 l 276 -79 l 413 -165 l 25 -165 l 159 -85 l 159 569 z m 191 138 l 220 -99 l 250 138 l 221 185 z m 189 382 l 219 334 l 250 382 l 220 613 z m 219 300 l 190 262 l 219 223 l 250 262 z"},"5":{"x_min":0,"x_max":556,"ha":556,"o":"m 435 700 l 526 471 l 355 596 l 88 596 l 88 352 q 104 371 129 387 q 149 401 180 412 q 212 422 254 422 q 320 422 370 397 q 421 372 456 332 q 490 293 508 244 q 527 194 530 144 q 535 60 514 0 q 494 -59 459 -97 q 424 -135 380 -153 q 335 -171 293 -172 q 231 -174 186 -167 q 141 -160 111 -151 q 76 -140 51 -126 l 0 51 l 158 -95 q 170 -103 186 -108 q 200 -113 218 -116 q 237 -120 261 -118 q 294 -116 322 -102 q 351 -87 372 -60 q 393 -32 406 8 q 418 49 419 105 q 420 174 405 222 q 390 270 364 300 q 339 331 306 345 q 272 359 237 359 q 198 359 169 342 q 140 325 120 304 q 101 283 91 266 q 81 248 80 248 q 72 259 62 264 q 52 269 43 272 q 32 275 22 276 l 22 700 z m 469 211 l 443 137 l 471 57 l 503 137 z m 136 678 l 88 648 l 136 619 l 385 649 z"}}}
